<svg xmlns="http://www.w3.org/2000/svg" xmlns:xlink="http://www.w3.org/1999/xlink" width="490.431" height="379.416" viewBox="0 0 490.431 379.416">
  <defs>
    <clipPath id="clip-path">
      <rect id="Rectangle_9218" data-name="Rectangle 9218" width="159.441" height="235.597" fill="none"/>
    </clipPath>
    <clipPath id="clip-path-2">
      <rect id="Rectangle_9323" data-name="Rectangle 9323" width="490.431" height="379.416" transform="translate(0 0)" fill="none"/>
    </clipPath>
  </defs>
  <g id="Group_55682" data-name="Group 55682" transform="translate(-1309.937 -1158.606)">
    <g id="Group_55625" data-name="Group 55625" transform="translate(1328.77 1254.708)">
      <g id="Group_55360" data-name="Group 55360" clip-path="url(#clip-path)">
        <path id="Path_68452" data-name="Path 68452" d="M45.7,46.855s-5.417-.215-8.909,9.818-2.949,38.807.77,43.665S51.834,103.6,51.834,103.6s13.582,4.1,16.921-4.555,1.556-29.578.342-39.659S56.476,40.327,45.7,46.855" transform="translate(-10.956 -14.196)" fill="#d66f50"/>
        <path id="Path_68453" data-name="Path 68453" d="M41.224,83.3S39.769,94.884,44.5,105.8s17.8,9.656,21.2,5.8,1.691-27.6,1.691-27.6Z" transform="translate(-13.044 -26.494)" fill="#bc5840"/>
        <path id="Path_68454" data-name="Path 68454" d="M40.4,71.864s-2.45-.132-2.516,3.642,3.867,5.4,3.867,5.4Z" transform="translate(-12.048 -22.856)" fill="#e2aa8f"/>
        <path id="Path_68455" data-name="Path 68455" d="M79.479,71.864s2.45-.132,2.516,3.642-3.7,5.4-3.7,5.4Z" transform="translate(-24.901 -22.856)" fill="#e2aa8f"/>
        <path id="Path_68456" data-name="Path 68456" d="M64.654,107.32s-3.384,3.114-6.854,3.114-6.855-3.357-6.855-3.357a13.719,13.719,0,0,0,.6-5.181,61.147,61.147,0,0,0-.6-6.829l13.709.485a29.5,29.5,0,0,0-.277,4.019c-.061,3.781.277,7.749.277,7.749" transform="translate(-16.203 -30.236)" fill="#ffccaf"/>
        <path id="Path_68457" data-name="Path 68457" d="M64.654,95.552a29.5,29.5,0,0,0-.277,4.019,24.936,24.936,0,0,1-8.6,2.511,16.785,16.785,0,0,1-4.233-.186,61.147,61.147,0,0,0-.6-6.829Z" transform="translate(-16.203 -30.236)" fill="#e2aa8f"/>
        <path id="Path_68458" data-name="Path 68458" d="M54.486,47.265c-2.505-.376-11.625.174-13.706,11.691,0,0,1.043,14.271,3.462,19.27,1.862,3.849,9.837,7.28,10.244,7.164.407.116,8.478-3.436,10.34-7.285,2.419-5,3.366-19.149,3.366-19.149-2.081-11.517-11.2-12.066-13.706-11.691" transform="translate(-12.97 -15.008)" fill="#ffccaf"/>
        <path id="Path_68459" data-name="Path 68459" d="M23.1,239.118s-1.026,22.153,0,32.474l2.352,39.91H44.679l3.4-51.521L56.2,311.5H74.591s1.146-66.114-.628-72.846c0,0-27.027,7.012-50.858.462" transform="translate(-7.203 -75.905)" fill="#133e56"/>
        <path id="Path_68460" data-name="Path 68460" d="M77.628,71.863s-.209,3.582,1.129,5.291l.882-5.089Z" transform="translate(-24.686 -22.856)" fill="#d66f50"/>
        <path id="Path_68461" data-name="Path 68461" d="M43.335,71.863s.209,3.582-1.129,5.291l-.882-5.089Z" transform="translate(-13.143 -22.856)" fill="#d66f50"/>
        <path id="Path_68462" data-name="Path 68462" d="M57.982,72.365a3.016,3.016,0,0,1,1.491,2.459c.121,1.774.2,5,.2,5L58.3,79.339s.357-3.466.323-4.717a4.173,4.173,0,0,0-.645-2.257" transform="translate(-18.441 -23.016)" fill="#e2aa8f"/>
        <path id="Path_68463" data-name="Path 68463" d="M66.221,83.186S63.621,81.8,56.187,81.8s-10.034,1.391-10.034,1.391c-.6,9.675,10.034,12.154,10.034,12.154s10.64-2.479,10.035-12.154" transform="translate(-14.671 -26.015)" fill="#fff"/>
        <path id="Path_68464" data-name="Path 68464" d="M41.845,75.971a48.007,48.007,0,0,0,3.427,5.684l-.586.556s-2.276-3.5-2.841-4.749,0-1.491,0-1.491" transform="translate(-13.229 -24.163)" fill="#fff"/>
        <path id="Path_68465" data-name="Path 68465" d="M77.948,75.971a48.008,48.008,0,0,1-3.427,5.684l.586.556s2.276-3.5,2.841-4.749,0-1.491,0-1.491" transform="translate(-23.702 -24.163)" fill="#fff"/>
        <path id="Path_68466" data-name="Path 68466" d="M46.754,94.147s.68.709,2.858.627v.786a3.571,3.571,0,0,1-1.781-.215,1.462,1.462,0,0,1-1.077-1.2" transform="translate(-14.87 -29.944)" fill="#fff"/>
        <path id="Path_68467" data-name="Path 68467" d="M74.06,93.838s-.68.709-2.858.627v.786a3.571,3.571,0,0,0,1.781-.215,1.462,1.462,0,0,0,1.077-1.2" transform="translate(-22.646 -29.845)" fill="#fff"/>
        <path id="Path_68468" data-name="Path 68468" d="M54.115,71.273a6.244,6.244,0,0,0-2.963-.987,6.749,6.749,0,0,0-2.983.494,3.081,3.081,0,0,1,2.217-1.341,3.409,3.409,0,0,1,3.729,1.834" transform="translate(-15.32 -22.065)" fill="#3f3e3e"/>
        <path id="Path_68469" data-name="Path 68469" d="M65.8,71.273a6.244,6.244,0,0,1,2.963-.987,6.749,6.749,0,0,1,2.983.494,3.081,3.081,0,0,0-2.217-1.341A3.409,3.409,0,0,0,65.8,71.273" transform="translate(-20.929 -22.065)" fill="#3f3e3e"/>
        <path id="Path_68470" data-name="Path 68470" d="M53.374,76.144c0,.713-.424,1.292-.947,1.292s-.947-.578-.947-1.292.424-1.292.947-1.292.947.578.947,1.292" transform="translate(-16.373 -23.807)" fill="#3f3e3e"/>
        <path id="Path_68471" data-name="Path 68471" d="M69.039,76.144c0,.713-.424,1.292-.947,1.292s-.947-.578-.947-1.292.424-1.292.947-1.292.947.578.947,1.292" transform="translate(-21.356 -23.807)" fill="#3f3e3e"/>
        <path id="Path_68472" data-name="Path 68472" d="M66.008,50.875c-4.7-4.705-17.724-6.882-22.538-.607-2.409,1.09-3.908,6.824-3.8,10.475.152,4.933,1.558,5.82,1.558,5.82,4.442-1.666,6.774-6.095,7.773-8.6a36.785,36.785,0,0,0,7.672,4.1,32.6,32.6,0,0,0,12.04,2.345s2.142-8.677-2.71-13.535" transform="translate(-12.617 -14.754)" fill="#d66f50"/>
        <path id="Path_68473" data-name="Path 68473" d="M63.235,39.619a20.051,20.051,0,0,0-20.64.862,10.757,10.757,0,0,0-3.2,2.977c-2.5,4.106-2,11.811-2,11.811s.479,1.1,5.413,1.1,6.415-3.112,10.3-3.112,7,2.733,10.645,3.112a11.082,11.082,0,0,0,6-.895S69.178,46.046,67.1,42.63a10.581,10.581,0,0,0-3.869-3.011" transform="translate(-11.881 -11.823)" fill="#4c96bf"/>
        <path id="Path_68474" data-name="Path 68474" d="M112.708,187.33c-.606,7.741-5.617,7.13-8.65,6.982s-8.767-5.574-8.767-5.574l3.517-7.864,3.421,1.742a84.967,84.967,0,0,1-6.1-14.877c.037-.143.074-.286.112-.435A63.379,63.379,0,0,0,97.937,157.2a12.974,12.974,0,0,1,1.8-1.333,20.849,20.849,0,0,1,5.84-2.391s.059.2.165.563c.287.994.929,3.219,1.716,6.1,2.248,8.278,5.664,21.944,5.255,27.188" transform="translate(-30.308 -48.813)" fill="#ffccaf"/>
        <path id="Path_68475" data-name="Path 68475" d="M68.9,168.759l-.737,7.461c.927,2.5,1.7,5.06,2.339,7.5a107.643,107.643,0,0,1,2.8,14.737s-14.239,5.715-25.928,5.906-24.993-5.776-24.993-5.776c-.007-.4-.014-.791-.014-1.187a50.274,50.274,0,0,1,.341-5.906,45.2,45.2,0,0,1,4.3-15.276l-.737-5.653-.921-7.12s-1.228-3.587-2.455-8.8v-.007a98.785,98.785,0,0,1-2.059-11.689A59.421,59.421,0,0,1,20.5,133.5c.73-13.666,4.767-17.035,4.767-17.035l16.442-6.567,6.567,5.176,5.681-5.176,17.267,6.9s2.3,5.967,3.028,19.633a50.354,50.354,0,0,1-.123,6.908,63.3,63.3,0,0,1-1.807,10.543,58.451,58.451,0,0,1-2.782,8.408Z" transform="translate(-6.5 -34.952)" fill="#2c76a5"/>
        <path id="Path_68476" data-name="Path 68476" d="M17.451,188.738s-5.728,5.419-8.762,5.574-8.044.76-8.655-6.982c-.42-5.355,3.156-19.5,5.4-27.709.8-2.917,1.429-5.09,1.652-5.85.053-.2.085-.3.085-.3a21.1,21.1,0,0,1,4.755,1.774l.016.005a14.743,14.743,0,0,1,2.4,1.551,93.632,93.632,0,0,0,1.573,9.537c.16.744.319,1.467.483,2.158v.005a86.573,86.573,0,0,1-5.887,14.117l3.427-1.748Z" transform="translate(0 -48.813)" fill="#ffccaf"/>
        <path id="Path_68477" data-name="Path 68477" d="M18.449,166.481,7.966,159.76c.8-2.917,1.429-5.09,1.652-5.85l4.84,1.477.016.005a14.744,14.744,0,0,1,2.4,1.551,93.476,93.476,0,0,0,1.573,9.537" transform="translate(-2.534 -48.951)" fill="#e2aa8f"/>
        <path id="Path_68478" data-name="Path 68478" d="M107.9,160.4l-11.211,7.184v-.021a63.286,63.286,0,0,0,1.7-10.106,13.035,13.035,0,0,1,1.8-1.334l6-1.828c.287.994.93,3.219,1.716,6.1" transform="translate(-30.751 -49.075)" fill="#e2aa8f"/>
        <path id="Path_68479" data-name="Path 68479" d="M23.77,218.949a45.2,45.2,0,0,1,4.3-15.276l-.737-5.653,42.629-1.807-.737,7.461c.927,2.5,1.7,5.06,2.339,7.5Z" transform="translate(-7.56 -62.406)" fill="#1e668e"/>
        <path id="Path_68480" data-name="Path 68480" d="M73,197.184H22.44a2,2,0,0,1-2-2V164.8a2,2,0,0,1,2-2H73a2,2,0,0,1,2,2v30.382a2,2,0,0,1-2,2" transform="translate(-6.5 -51.778)" fill="#9c897a"/>
        <rect id="Rectangle_9215" data-name="Rectangle 9215" width="54.563" height="3.644" transform="translate(13.938 125.687)" fill="#b29f93"/>
        <path id="Path_68481" data-name="Path 68481" d="M21.071,119.454A52.925,52.925,0,0,0,7.284,142.432l11.342,6.073s2.928-23,2.445-29.051" transform="translate(-2.317 -37.992)" fill="#4c96bf"/>
        <path id="Path_68482" data-name="Path 68482" d="M94.883,120.018a54.164,54.164,0,0,1,13.7,23.1l-11.342,6.072s-2.838-23.128-2.354-29.174" transform="translate(-30.16 -38.172)" fill="#4c96bf"/>
        <path id="Path_68483" data-name="Path 68483" d="M93.312,189.523a64.243,64.243,0,0,0-5.123-5.053,10.156,10.156,0,0,0-4.435-2.951c-3.093-1.072-3.674-1.09-3.743-.3s3.275,2.339,4.371,3.022a15.252,15.252,0,0,1,1.812,1.438l-.1.2a10.69,10.69,0,0,0-3.209-1.833c-3.078-1.115-3.657-1.142-3.739-.353s3.243,2.386,4.328,3.084a13.882,13.882,0,0,1,1.58,1.27l-.113.235a10.7,10.7,0,0,0-3.192-1.818c-3.078-1.116-3.657-1.142-3.738-.353s3.242,2.386,4.328,3.084a13.815,13.815,0,0,1,1.562,1.255l-.042.087a10.816,10.816,0,0,0-2.109-1.035c-3.078-1.115-3.657-1.142-3.738-.352s3.242,2.385,4.328,3.084c.163.105.341.235.525.378a15.69,15.69,0,0,0,5.792,4.327l0,0,5.321,3.852a36.962,36.962,0,0,0,1.044-6.191,7.467,7.467,0,0,0-1.71-5.087" transform="translate(-24.812 -57.461)" fill="#ffccaf"/>
        <path id="Path_68484" data-name="Path 68484" d="M30.923,189.51a10.835,10.835,0,0,0-2.109,1.035l-.042-.087a13.755,13.755,0,0,1,1.562-1.255c1.085-.7,4.409-2.295,4.328-3.084s-.661-.763-3.739.353a10.7,10.7,0,0,0-3.192,1.818l-.113-.235a13.879,13.879,0,0,1,1.579-1.27c1.086-.7,4.409-2.295,4.328-3.084s-.661-.762-3.739.353a10.7,10.7,0,0,0-3.209,1.833l-.1-.2a15.2,15.2,0,0,1,1.813-1.438c1.095-.683,4.441-2.232,4.371-3.022s-.651-.773-3.744.3a10.166,10.166,0,0,0-4.435,2.951,64.372,64.372,0,0,0-5.123,5.053,8.407,8.407,0,0,0-2.288,5.58,7.68,7.68,0,0,0,1.732,5.62l4.52-3.494,0-.007a15.711,15.711,0,0,0,6.485-4.6c.184-.143.363-.273.526-.378,1.085-.7,4.409-2.294,4.328-3.084s-.661-.763-3.739.352" transform="translate(-5.427 -57.461)" fill="#ffccaf"/>
        <path id="Path_68485" data-name="Path 68485" d="M50.693,106.65l6.428,7.386-7.759,3.5-1.116-7.749Z" transform="translate(-15.345 -33.92)" fill="#4c96bf"/>
        <path id="Path_68486" data-name="Path 68486" d="M67.733,106.65l-6.472,7.386,7.8,3.5,1.116-7.749Z" transform="translate(-19.484 -33.92)" fill="#4c96bf"/>
        <path id="Path_68487" data-name="Path 68487" d="M43.073,59.386s6.407-4.8,11.019-5.479c5.04-.74,12.021,4.65,13.222,6.092,0,0,1.216,4.465-.55,5.192s-8.116-3.674-11-3.977-10.38,4.532-12.69,3.924,0-5.752,0-5.752" transform="translate(-13.373 -17.123)" fill="#2c76a5"/>
        <rect id="Rectangle_9216" data-name="Rectangle 9216" width="4.782" height="34.554" transform="translate(38.899 111.02)" fill="#b29f93"/>
        <path id="Path_68488" data-name="Path 68488" d="M91.3,170.125H84.367a.39.39,0,0,1-.39-.389v-2.182a.39.39,0,0,1,.39-.389H91.3a.39.39,0,0,1,.39.389v2.182a.39.39,0,0,1-.39.389" transform="translate(-26.709 -53.167)" fill="#766a5a"/>
        <path id="Path_68489" data-name="Path 68489" d="M79.776,170.125H79.4a.989.989,0,0,1-.989-.989v-.981a.99.99,0,0,1,.989-.989h.374a.99.99,0,0,1,.99.989v.981a.989.989,0,0,1-.99.989" transform="translate(-24.939 -53.167)" fill="#766a5a"/>
        <path id="Path_68490" data-name="Path 68490" d="M40.716,56.079s.137-10.522,5.546-12.86,12.848-2.252,17.507.432S67.9,55.9,67.9,55.9" transform="translate(-12.95 -13.214)" fill="none" stroke="#2c76a5" stroke-miterlimit="10" stroke-width="1"/>
        <line id="Line_2622" data-name="Line 2622" y2="13.666" transform="translate(41.777 80.116)" fill="none" stroke="#4c96bf" stroke-miterlimit="10" stroke-width="1"/>
        <path id="Path_68491" data-name="Path 68491" d="M64.873,123.76a.975.975,0,1,1-.974-.974A.975.975,0,0,1,64.873,123.76Z" transform="translate(-20.013 -39.052)" fill="none" stroke="#4c96bf" stroke-miterlimit="10" stroke-width="1"/>
        <path id="Path_68492" data-name="Path 68492" d="M64.873,131.26a.975.975,0,1,1-.974-.974A.975.975,0,0,1,64.873,131.26Z" transform="translate(-20.013 -41.438)" fill="none" stroke="#4c96bf" stroke-miterlimit="10" stroke-width="1"/>
        <path id="Path_68493" data-name="Path 68493" d="M59.935,266.951s.626-4.553,4.206-6.38" transform="translate(-19.063 -82.875)" fill="none" stroke="#0c2f3f" stroke-miterlimit="10" stroke-width="1"/>
        <path id="Path_68494" data-name="Path 68494" d="M48.169,85.929a41.086,41.086,0,0,1,8.385-1.071,44.458,44.458,0,0,1,8.594,1.071" transform="translate(-15.32 -26.989)" fill="none" stroke="#d9d9d9" stroke-linecap="round" stroke-linejoin="round" stroke-width="1"/>
        <path id="Path_68495" data-name="Path 68495" d="M49.424,89.651a35.038,35.038,0,0,1,7.722-1.071,37.914,37.914,0,0,1,7.915,1.071" transform="translate(-15.719 -28.173)" fill="none" stroke="#d9d9d9" stroke-linecap="round" stroke-linejoin="round" stroke-width="1"/>
        <path id="Path_68496" data-name="Path 68496" d="M121.828,92.379a5.31,5.31,0,0,1,2.328-3.477c2.11-1.455,8.585-4.51,10.259-4.51a4.707,4.707,0,0,1,2.821.978l-2.24.919a2.149,2.149,0,0,0-2.692,0c-1.673,1.013-6.839,2.905-7.421,3.633a4.749,4.749,0,0,0-.8,1.674Z" transform="translate(-38.748 -26.841)" fill="#29313a"/>
        <path id="Path_68497" data-name="Path 68497" d="M200.459,93.04a5.31,5.31,0,0,0-2.328-3.477c-2.11-1.455-8.585-4.51-10.259-4.51a4.707,4.707,0,0,0-2.821.978l2.24.919a2.149,2.149,0,0,1,2.692,0c1.673,1.013,6.839,2.905,7.421,3.633a4.749,4.749,0,0,1,.8,1.674Z" transform="translate(-58.856 -27.051)" fill="#29313a"/>
        <path id="Path_68498" data-name="Path 68498" d="M179.67,143.859l-.607,6.54-1.548,16.571-1.227,13.162a102.078,102.078,0,0,1-29.3,4.474,83.932,83.932,0,0,1-26.078-3.955L119.147,167.6l-2.319-17.2-.887-6.54s-4.33-17.587-3.519-32.884,3.11-18.945,3.11-18.945l25.423-10.147L147.8,87.27l6.854-5.387L180.079,92.03s2.3,3.655,3.11,18.945-3.519,32.884-3.519,32.884" transform="translate(-35.724 -26.043)" fill="#556574"/>
        <path id="Path_68499" data-name="Path 68499" d="M141.741,39.318s-2.741-.148-2.816,4.075,4.326,6.042,4.326,6.042Z" transform="translate(-44.185 -12.505)" fill="#b7766e"/>
        <path id="Path_68500" data-name="Path 68500" d="M185.471,39.318s2.741-.148,2.816,4.075-4.144,6.042-4.144,6.042Z" transform="translate(-58.567 -12.505)" fill="#b7766e"/>
        <path id="Path_68501" data-name="Path 68501" d="M168.883,78.991s-3.878,3.158-7.761,3.158-7.578-3.429-7.578-3.429a15.361,15.361,0,0,0,.676-5.8,68.306,68.306,0,0,0-.676-7.642l15.34.544a33.063,33.063,0,0,0-.31,4.5c-.07,4.231.31,8.67.31,8.67" transform="translate(-48.835 -20.763)" fill="#cf8f83"/>
        <path id="Path_68502" data-name="Path 68502" d="M168.883,65.824a33.065,33.065,0,0,0-.31,4.5,27.9,27.9,0,0,1-9.618,2.81,18.824,18.824,0,0,1-4.737-.208,68.285,68.285,0,0,0-.676-7.641Z" transform="translate(-48.835 -20.763)" fill="#b7766e"/>
        <path id="Path_68503" data-name="Path 68503" d="M157.505,11.792c-2.8-.42-13.008.194-15.337,13.081,0,0,1.168,15.969,3.874,21.563,2.084,4.307,11.007,8.145,11.463,8.015.456.13,9.487-3.843,11.571-8.151,2.706-5.593,3.766-21.427,3.766-21.427-2.329-12.887-12.534-13.5-15.337-13.081" transform="translate(-45.217 -3.723)" fill="#cf8f83"/>
        <path id="Path_68504" data-name="Path 68504" d="M124.688,226.467s-1.117,24.788,0,36.336l2.56,44.657H148.18l3.7-57.649,8.842,57.649h20.028s1.247-73.978-.685-81.511c0,0-29.427,7.846-55.374.518" transform="translate(-39.5 -71.863)" fill="#29313a"/>
        <path id="Path_68505" data-name="Path 68505" d="M112.508,129.347,92.52,123.2a47.553,47.553,0,0,1,2.7-7.324,62.26,62.26,0,0,1,9.165-14.082,52.964,52.964,0,0,1,4.849-5.033c.546,6.765,3.273,32.584,3.273,32.584" transform="translate(-29.426 -30.776)" fill="#556574"/>
        <path id="Path_68506" data-name="Path 68506" d="M211.153,96.765a59.22,59.22,0,0,1,15.427,25.712l-12.691,6.795s-3.277-25.74-2.736-32.506" transform="translate(-67.139 -30.776)" fill="#556574"/>
        <path id="Path_68507" data-name="Path 68507" d="M153.261,78.242l6.18,8.029-7.669,4.152-1.249-8.67Z" transform="translate(-47.875 -24.885)" fill="#29313a"/>
        <path id="Path_68508" data-name="Path 68508" d="M172.823,78.242l-6.18,8.029,7.669,4.152,1.249-8.67Z" transform="translate(-53.001 -24.885)" fill="#29313a"/>
        <path id="Path_68509" data-name="Path 68509" d="M170.894,17.045a12.947,12.947,0,0,0-13.713-6,12.947,12.947,0,0,0-13.713,6c-5.413,8.21-.7,16.921-.7,16.921a6.338,6.338,0,0,0,2.5-5.057,51.946,51.946,0,0,0,0-5.955s7.848.812,11.908.812,11.908-.812,11.908-.812a52.143,52.143,0,0,0,0,5.955,6.449,6.449,0,0,0,2.368,5.057s4.849-8.711-.564-16.921" transform="translate(-44.804 -3.427)" fill="#af6708"/>
        <path id="Path_68510" data-name="Path 68510" d="M161.417,39.879a3.373,3.373,0,0,1,1.669,2.752c.136,1.984.226,5.593.226,5.593l-1.534-.541s.4-3.878.361-5.278a4.672,4.672,0,0,0-.722-2.526" transform="translate(-51.339 -12.684)" fill="#b7766e"/>
        <path id="Path_68511" data-name="Path 68511" d="M170.637,51.986s-2.909-1.556-11.228-1.556-11.228,1.556-11.228,1.556c-.676,10.826,11.228,13.6,11.228,13.6s11.9-2.774,11.228-13.6" transform="translate(-47.12 -16.039)" fill="#fff"/>
        <path id="Path_68512" data-name="Path 68512" d="M143.36,43.914a53.718,53.718,0,0,0,3.835,6.361l-.655.623s-2.548-3.916-3.179-5.314,0-1.669,0-1.669" transform="translate(-45.507 -13.967)" fill="#fff"/>
        <path id="Path_68513" data-name="Path 68513" d="M183.758,43.914a53.781,53.781,0,0,1-3.834,6.361l.655.623s2.548-3.916,3.179-5.314,0-1.669,0-1.669" transform="translate(-57.225 -13.967)" fill="#fff"/>
        <path id="Path_68514" data-name="Path 68514" d="M148.853,64.252s.76.793,3.2.7v.88a4,4,0,0,1-1.993-.241,1.636,1.636,0,0,1-1.206-1.341" transform="translate(-47.343 -20.435)" fill="#fff"/>
        <path id="Path_68515" data-name="Path 68515" d="M179.407,63.906s-.76.793-3.2.7v.88a4,4,0,0,0,1.993-.241,1.636,1.636,0,0,0,1.206-1.341" transform="translate(-56.044 -20.325)" fill="#fff"/>
        <path id="Path_68516" data-name="Path 68516" d="M157.09,38.658a7,7,0,0,0-3.316-1.105,7.556,7.556,0,0,0-3.338.553,3.446,3.446,0,0,1,2.482-1.5,3.814,3.814,0,0,1,4.172,2.053" transform="translate(-47.847 -11.62)" fill="#91550d"/>
        <path id="Path_68517" data-name="Path 68517" d="M170.167,38.658a7,7,0,0,1,3.316-1.105,7.556,7.556,0,0,1,3.338.553,3.446,3.446,0,0,0-2.481-1.5,3.815,3.815,0,0,0-4.173,2.053" transform="translate(-54.122 -11.62)" fill="#91550d"/>
        <path id="Path_68518" data-name="Path 68518" d="M181.165,182.353l-1.548,16.571c-8.7-3.069-27.769-9.609-31.465-9.206-4.208.464-19.108,8.872-26.9,9.834l-2.319-17.2Z" transform="translate(-37.826 -57.998)" fill="#495760"/>
        <path id="Path_68519" data-name="Path 68519" d="M156.261,44.107c0,.8-.475,1.446-1.06,1.446s-1.06-.647-1.06-1.446.475-1.445,1.06-1.445,1.06.646,1.06,1.445" transform="translate(-49.025 -13.569)" fill="#3f3e3e"/>
        <line id="Line_2623" data-name="Line 2623" y2="96.216" transform="translate(112.286 61.386)" fill="none" stroke="#374049" stroke-miterlimit="10" stroke-width="1"/>
        <path id="Path_68520" data-name="Path 68520" d="M173.79,44.107c0,.8-.475,1.446-1.06,1.446s-1.061-.647-1.061-1.446.475-1.445,1.061-1.445,1.06.646,1.06,1.445" transform="translate(-54.6 -13.569)" fill="#3f3e3e"/>
        <path id="Path_68521" data-name="Path 68521" d="M172.537,16.372,171.355,20.3l-16.161-5.968-16.311,6.328-1.324-3.708s-2.567-.951-2.859-1.969-.075-3.565,5.69-9.018S154.2,0,154.2,0c10.118,0,20.6,10.044,21.03,12.882s-2.689,3.49-2.689,3.49" transform="translate(-42.816 0)" fill="#29313a"/>
        <path id="Path_68522" data-name="Path 68522" d="M173.908,21.162l-1.182,3.931L163.8,21.8a20.376,20.376,0,0,0-14.432.118l-9.117,3.537-1.324-3.708s8.21-5.826,15.333-6.62,19.645,6.037,19.645,6.037" transform="translate(-44.187 -4.79)" fill="#556574"/>
        <path id="Path_68523" data-name="Path 68523" d="M166.065,24.068a23.447,23.447,0,0,0-15.673.173c-3.067,1.12-6,2.3-6.536,2.876-1.19,1.288,6.488,2.983,12.884,3.783s14.842-2.255,15.49-3.71c.3-.683-2.793-1.959-6.165-3.121" transform="translate(-45.715 -7.253)" fill="#29313a"/>
        <path id="Path_68524" data-name="Path 68524" d="M166.086,6.122a3.572,3.572,0,0,1-7.13,0,3.572,3.572,0,0,1,7.13,0" transform="translate(-50.556 -0.883)" fill="#556574"/>
        <path id="Path_68525" data-name="Path 68525" d="M199.945,137.52s.726,24.73-4.677,34.483-49.058-3.575-59.147-9.909l5.557-8.165,41.844,3.854,1.611-15.476Z" transform="translate(-43.294 -43.738)" fill="#b7766e"/>
        <path id="Path_68526" data-name="Path 68526" d="M165.665,151.587a49.965,49.965,0,0,0-7.3,2.342l-41.844,3.854-1.611-15.476-14.811-4.787s-.727,24.73,4.677,34.483,49.057-3.574,59.146-9.909a9.018,9.018,0,0,0,8.136-4.311l.582-5.585s-4.546-1-6.971-.61" transform="translate(-31.825 -43.738)" fill="#cf8f83"/>
        <path id="Path_68527" data-name="Path 68527" d="M118.983,151.359a12.491,12.491,0,0,0-5.327-.333c-2.425.533-2.473,1.406-2.279,1.892s3.055.1,4.122,0a13.427,13.427,0,0,1,3.749.98l.014.138a12.335,12.335,0,0,0-5.267-.316c-2.425.534-2.473,1.407-2.28,1.892s3.056.1,4.123,0a13.142,13.142,0,0,1,3.687.957l.013.126a11.821,11.821,0,0,0-4.853-.211c-2.426.534-2.474,1.407-2.28,1.892s3.056.1,4.122,0a10.612,10.612,0,0,1,3.1.746,10.27,10.27,0,0,0-4.107.393c-2.071.749-2.013,1.523-1.787,1.926s2.836-.145,3.787-.145a6.515,6.515,0,0,1,2.576.726l11.809-1.088,1.883-2.766Z" transform="translate(-35.401 -47.979)" fill="#b7766e"/>
        <path id="Path_68528" data-name="Path 68528" d="M120.977,130.637s-2.419-16.119-1.688-26.494" transform="translate(-37.896 -33.123)" fill="none" stroke="#374049" stroke-miterlimit="10" stroke-width="1"/>
        <path id="Path_68529" data-name="Path 68529" d="M209.212,104.143s1.577,17.986-1.22,27.549" transform="translate(-66.152 -33.123)" fill="none" stroke="#374049" stroke-miterlimit="10" stroke-width="1"/>
        <path id="Path_68530" data-name="Path 68530" d="M107.691,110.649a18.66,18.66,0,0,1-6.063,6.09,10.276,10.276,0,0,1-5.149,1.487,62.259,62.259,0,0,1,9.165-14.082s1.466,5.04,2.046,6.506" transform="translate(-30.686 -33.123)" fill="#677a89"/>
        <path id="Path_68531" data-name="Path 68531" d="M129.531,121.759l1.023,13.284a23.6,23.6,0,0,0,7.379,2.137c3.434.215,6.869-2.137,6.869-2.137l1.1-13.65Z" transform="translate(-41.198 -38.609)" fill="#677a89"/>
        <path id="Path_68532" data-name="Path 68532" d="M129.361,120.668s3.946,2.776,7.16,3.288,9.214-3.653,9.214-3.653v-2.338h-16.74Z" transform="translate(-41.027 -37.519)" fill="#425260"/>
        <path id="Path_68533" data-name="Path 68533" d="M179.531,121.759l1.023,13.284a23.6,23.6,0,0,0,7.38,2.137c3.434.215,6.868-2.137,6.868-2.137l1.1-13.65Z" transform="translate(-57.1 -38.609)" fill="#677a89"/>
        <path id="Path_68534" data-name="Path 68534" d="M179.361,120.668s3.946,2.776,7.16,3.288,9.214-3.653,9.214-3.653v-2.338h-16.74Z" transform="translate(-56.93 -37.519)" fill="#425260"/>
        <rect id="Rectangle_9217" data-name="Rectangle 9217" width="14.321" height="2.046" transform="translate(123.04 76.135)" fill="#677a89"/>
        <path id="Path_68535" data-name="Path 68535" d="M164.79,256.961s.871-6.1,5.84-8.535" transform="translate(-52.412 -79.012)" fill="none" stroke="#1c2228" stroke-miterlimit="10" stroke-width="1"/>
        <path id="Path_68536" data-name="Path 68536" d="M126.639,232.319s6.94,3.744,25.926,3.549,27.266-3.959,27.266-3.959" transform="translate(-40.278 -73.759)" fill="none" stroke="#1c2228" stroke-miterlimit="10" stroke-width="1"/>
        <path id="Path_68537" data-name="Path 68537" d="M141.48,122.4a1.005,1.005,0,1,1-1.005-1.005,1.005,1.005,0,0,1,1.005,1.005" transform="translate(-44.359 -38.609)" fill="#556574"/>
        <path id="Path_68538" data-name="Path 68538" d="M192.762,122.4a1.005,1.005,0,1,1-1.005-1.005,1.005,1.005,0,0,1,1.005,1.005" transform="translate(-60.669 -38.609)" fill="#556574"/>
        <path id="Path_68539" data-name="Path 68539" d="M152.341,54.844a41.086,41.086,0,0,1,8.385-1.071,44.458,44.458,0,0,1,8.594,1.071" transform="translate(-48.452 -17.103)" fill="none" stroke="#d9d9d9" stroke-linecap="round" stroke-linejoin="round" stroke-width="1"/>
        <path id="Path_68540" data-name="Path 68540" d="M153.6,58.566a35.038,35.038,0,0,1,7.722-1.071,37.914,37.914,0,0,1,7.915,1.071" transform="translate(-48.852 -18.286)" fill="none" stroke="#d9d9d9" stroke-linecap="round" stroke-linejoin="round" stroke-width="1"/>
      </g>
    </g>
    <g id="Group_55626" data-name="Group 55626" transform="translate(1697.164 1273.553)">
      <g id="Group_55627" data-name="Group 55627">
        <path id="Path_68368" data-name="Path 68368" d="M65.491,56.924c0,7.168-7.108,12.978-15.875,12.978S33.74,64.091,33.74,56.924s7.108-12.978,15.876-12.978,15.875,5.81,15.875,12.978" transform="translate(-12.076 -15.729)" fill="#3f3e3e"/>
        <path id="Path_68369" data-name="Path 68369" d="M35.92,38.607s-2.751.506-2,4.754a5.012,5.012,0,0,0,4.5,4.417s.18-7.314-2.5-9.171" transform="translate(-12.094 -13.818)" fill="#e2aa8f"/>
        <path id="Path_68370" data-name="Path 68370" d="M80.391,38.607s2.751.506,2,4.754a5.013,5.013,0,0,1-4.5,4.417s-.18-7.314,2.5-9.171" transform="translate(-27.878 -13.818)" fill="#e2aa8f"/>
        <path id="Path_68371" data-name="Path 68371" d="M71.15,103.643c-.74-13.934-1.694-17.91-1.694-17.91L49.961,77.8l-6.244,4.91L37.474,77.8,17.84,85.639s-1.1,7.878-1.843,21.812,7.716,29.785,7.716,29.785l1.4,29.718s4.029,4.446,17.865,4.446c14.617,0,19.155-4.238,19.155-4.238l2.731-33.227s7.026-16.358,6.287-30.291" transform="translate(-5.709 -27.845)" fill="#4c96bf"/>
        <path id="Path_68372" data-name="Path 68372" d="M62.71,74.227S59.177,77.1,55.638,77.1s-6.9-3.124-6.9-3.124a14.017,14.017,0,0,0,.616-5.283,62.4,62.4,0,0,0-.616-6.963l13.977.5a30.06,30.06,0,0,0-.282,4.1c-.064,3.855.282,7.9.282,7.9" transform="translate(-17.443 -22.096)" fill="#ffccaf"/>
        <path id="Path_68373" data-name="Path 68373" d="M62.71,62.229a30.068,30.068,0,0,0-.282,4.1,25.421,25.421,0,0,1-8.764,2.561,17.17,17.17,0,0,1-4.315-.189,62.4,62.4,0,0,0-.616-6.963Z" transform="translate(-17.443 -22.096)" fill="#e2aa8f"/>
        <path id="Path_68374" data-name="Path 68374" d="M52.235,21.235c-2.555-.383-10.892.177-13.014,11.92,0,0,.1,7.313,2.568,12.41,1.9,3.924,10.03,7.422,10.445,7.3.415.119,8.644-3.5,10.543-7.427,2.466-5.1,2.494-11.9,2.494-11.9C63.149,21.8,54.789,20.852,52.235,21.235" transform="translate(-14.038 -7.572)" fill="#ffccaf"/>
        <path id="Path_68375" data-name="Path 68375" d="M23.988,209.289s-4.066,28.157-3.048,38.68l2.333,40.692H42.345l3.37-52.53,8.057,52.53h18.25s-1.615-69.013-3.375-75.878a117.592,117.592,0,0,1-44.658-3.494" transform="translate(-7.436 -74.909)" fill="#133e56"/>
        <path id="Path_68376" data-name="Path 68376" d="M48.3,74.278l5.631,7.317-6.988,3.783-1.138-7.9Z" transform="translate(-16.397 -26.585)" fill="#2c76a5"/>
        <path id="Path_68377" data-name="Path 68377" d="M67.042,74.278l-5.631,7.317L68.4,85.377l1.138-7.9Z" transform="translate(-21.98 -26.585)" fill="#2c76a5"/>
        <path id="Path_68378" data-name="Path 68378" d="M56.353,37.151a3.076,3.076,0,0,1,1.521,2.507c.123,1.809.205,5.1.205,5.1l-1.4-.493s.364-3.533.329-4.809a4.257,4.257,0,0,0-.657-2.3" transform="translate(-20.17 -13.297)" fill="#e2aa8f"/>
        <path id="Path_68379" data-name="Path 68379" d="M64,48.779s-2.651-1.418-10.231-1.418-10.231,1.418-10.231,1.418c-.616,9.865,10.231,12.393,10.231,12.393S64.62,58.644,64,48.779" transform="translate(-15.575 -16.952)" fill="#fff"/>
        <path id="Path_68380" data-name="Path 68380" d="M38.861,41.056a49,49,0,0,0,3.494,5.8l-.6.568s-2.322-3.568-2.9-4.842,0-1.521,0-1.521" transform="translate(-13.818 -14.695)" fill="#fff"/>
        <path id="Path_68381" data-name="Path 68381" d="M77.757,41.056a49,49,0,0,1-3.494,5.8l.6.568s2.322-3.568,2.9-4.842,0-1.521,0-1.521" transform="translate(-26.58 -14.695)" fill="#fff"/>
        <path id="Path_68382" data-name="Path 68382" d="M44.193,60.738s.693.722,2.914.64v.8a3.64,3.64,0,0,1-1.816-.22,1.491,1.491,0,0,1-1.1-1.221" transform="translate(-15.818 -21.739)" fill="#fff"/>
        <path id="Path_68383" data-name="Path 68383" d="M73.582,60.4s-.693.722-2.914.64v.8a3.64,3.64,0,0,0,1.816-.22,1.491,1.491,0,0,0,1.1-1.221" transform="translate(-25.294 -21.62)" fill="#fff"/>
        <path id="Path_68384" data-name="Path 68384" d="M51.789,35.848a6.37,6.37,0,0,0-3.021-1.007,6.884,6.884,0,0,0-3.042.5,3.14,3.14,0,0,1,2.261-1.367,3.475,3.475,0,0,1,3.8,1.87" transform="translate(-16.366 -12.138)" fill="#3f3e3e"/>
        <path id="Path_68385" data-name="Path 68385" d="M64.821,35.848a6.37,6.37,0,0,1,3.021-1.007,6.884,6.884,0,0,1,3.042.5,3.14,3.14,0,0,0-2.261-1.367,3.475,3.475,0,0,0-3.8,1.87" transform="translate(-23.201 -12.138)" fill="#3f3e3e"/>
        <path id="Path_68386" data-name="Path 68386" d="M51.243,41.161c0,.727-.433,1.317-.966,1.317s-.966-.589-.966-1.317.433-1.317.966-1.317.966.589.966,1.317" transform="translate(-17.65 -14.261)" fill="#3f3e3e"/>
        <path id="Path_68387" data-name="Path 68387" d="M68.207,41.161c0,.727-.432,1.317-.966,1.317s-.966-.589-.966-1.317.433-1.317.966-1.317.966.589.966,1.317" transform="translate(-23.721 -14.261)" fill="#3f3e3e"/>
        <path id="Path_68388" data-name="Path 68388" d="M43.136,22.251s2.093,2.69,7.478,3.976a45.02,45.02,0,0,0,11.648.851s-.142,7.177,1.3,9.771c0,0,3.137-3.46,2.993-10.176a9.241,9.241,0,0,0-5.4-8.681L39.781,19.012s-4.287,2.977-4.287,8.061a15.24,15.24,0,0,0,2.394,8.37s5.472-9.724,5.248-13.192" transform="translate(-12.704 -6.44)" fill="#3f3e3e"/>
        <path id="Path_68389" data-name="Path 68389" d="M66.5,16.129a50.328,50.328,0,0,1-13.541,1.13,69.9,69.9,0,0,1-12.6-1.849s.347-1.143.815-2.665c.944-3.037,2.395-7.589,2.633-7.634.353-.071,21.073,1.5,21.5,2.286.366.668.963,6.491,1.136,8.238.032.315.051.494.051.494" transform="translate(-14.446 -1.828)" fill="#ffb515"/>
        <path id="Path_68390" data-name="Path 68390" d="M25.778,84.946l.88,23.408,4.823-1.178-.858-24.255Z" transform="translate(-9.227 -29.679)" fill="#00d4d4"/>
        <path id="Path_68391" data-name="Path 68391" d="M90.8,86.4l-.88,23.409L85.1,108.625l.857-24.255Z" transform="translate(-30.46 -30.198)" fill="#00d4d4"/>
        <path id="Path_68392" data-name="Path 68392" d="M75.352,238.881s-19.8,6.228-35.237,6.716v.026c-.154-.006-.308-.013-.462-.013s-.315.006-.469.013V245.6c-9.137-.289-20.45-2.832-28.168-4.854-5.323-1.4-8.938-2.549-8.938-2.549-1.271,2.658,5.034-42.852,11.487-65.852,1.573-5.612-.109-25.041-1.445-37.69-.693-6.588-1.3-11.339-1.3-11.339,11.634-9.137,26.043-8.071,26.043-8.071h5.567a36.293,36.293,0,0,1,23.93,7.93s-4.783,25-4.1,41.247a37.7,37.7,0,0,0,1.136,8.334c2.376,8.366,4.681,20.02,6.626,31.218,3.133,18.049,5.323,34.91,5.323,34.91" transform="translate(-0.685 -41.229)" fill="#00d4d4"/>
        <path id="Path_68393" data-name="Path 68393" d="M70.029,210.5c-9.843-1.226-23.384-.751-36.271,6.857-15.089,8.912-20.675,21.606-22.742,29.914-5.323-1.4-8.938-2.549-8.938-2.549-1.271,2.658,5.034-42.852,11.487-65.852,1.573-5.612-.109-25.041-1.445-37.69l1.008-7.756s7.557,32.932,27.661,38.435c9.073,2.485,16.29,1.226,21.477-.912a37.7,37.7,0,0,0,1.136,8.334c2.376,8.366,4.681,20.02,6.626,31.218" transform="translate(-0.685 -47.755)" fill="#02aeae"/>
        <path id="Path_68394" data-name="Path 68394" d="M12.131,90.01S.858,100.513,0,113.373l12.5.928s2.114-15.719-.372-24.291" transform="translate(0 -32.216)" fill="#4c96bf"/>
        <path id="Path_68395" data-name="Path 68395" d="M2.727,126.674s-1.263,19.754,0,28.969S32.065,192.01,32.065,192.01l5.36-7.193L14.972,154.729,12.563,127.48Z" transform="translate(-0.775 -45.339)" fill="#ffccaf"/>
        <path id="Path_68396" data-name="Path 68396" d="M96.078,126.674s1.263,19.754,0,28.969S66.74,192.01,66.74,192.01l-5.36-7.193,22.453-30.088,2.408-27.249Z" transform="translate(-21.969 -45.339)" fill="#e2aa8f"/>
        <path id="Path_68397" data-name="Path 68397" d="M48.3,225a5.279,5.279,0,0,1,1.639-2.479c.161-.2.363-.429.618-.7,1.357-1.429,6.611-5.864,6.611-5.864s5.463,6.436,4.75,8.011-5.36,5.355-5.36,5.355L55.344,231s-.96,2.607-1.567,2.858-.964-1.608-.25-3.358a7.891,7.891,0,0,1,1.6-2.314l-.358-.283-1.468,1.7s-.96,2.608-1.567,2.858-.964-1.607-.25-3.358a8.109,8.109,0,0,1,1.725-2.44l-.445-.352-1.359,1.578s-.882,3.393-1.489,3.644-1.072-.971-.328-4.144a5.141,5.141,0,0,1,1.533-2.38l-.348-.275-.654.76s-.882,3.393-1.489,3.643S47.562,228.17,48.3,225" transform="translate(-17.152 -77.295)" fill="#e2aa8f"/>
        <path id="Path_68398" data-name="Path 68398" d="M62.315,225a5.279,5.279,0,0,0-1.639-2.479c-.161-.2-.363-.429-.618-.7-1.357-1.429-6.611-5.864-6.611-5.864s-5.463,6.436-4.75,8.011,5.36,5.355,5.36,5.355L55.275,231s.96,2.607,1.567,2.858.964-1.608.25-3.358a7.891,7.891,0,0,0-1.6-2.314l.358-.283,1.468,1.7s.96,2.608,1.567,2.858.964-1.607.25-3.358a8.109,8.109,0,0,0-1.725-2.44l.445-.352,1.359,1.578s.882,3.393,1.489,3.644,1.072-.971.328-4.144a5.146,5.146,0,0,0-1.533-2.38l.348-.275.654.76s.882,3.393,1.489,3.643,1.072-.971.329-4.143" transform="translate(-17.407 -77.295)" fill="#ffccaf"/>
        <path id="Path_68399" data-name="Path 68399" d="M98.892,90.01s11.273,10.5,12.131,23.363l-12.5.928s-2.114-15.719.372-24.291" transform="translate(-34.963 -32.216)" fill="#4c96bf"/>
        <path id="Path_68400" data-name="Path 68400" d="M37.091,132.5s5.175-.367,12.769-.367,16.675.367,16.675.367.55,18.528-10.915,23.481S35.532,142.226,37.091,132.5" transform="translate(-13.21 -47.294)" fill="#02aeae"/>
        <path id="Path_68401" data-name="Path 68401" d="M66.5,18.844a50.328,50.328,0,0,1-13.541,1.13,69.9,69.9,0,0,1-12.6-1.849s.347-1.143.815-2.665A22.849,22.849,0,0,1,48.039,12.8c4.867-.931,11.346,4.841,18.408,5.554.032.315.051.494.051.494" transform="translate(-14.446 -4.544)" fill="#dd9c19"/>
        <path id="Path_68402" data-name="Path 68402" d="M32.194,123.35a1.572,1.572,0,1,1-1.572-1.572,1.572,1.572,0,0,1,1.572,1.572" transform="translate(-10.398 -43.587)" fill="#0d5de3"/>
        <path id="Path_68403" data-name="Path 68403" d="M88.362,123.656a1.572,1.572,0,1,1-1.572-1.572,1.572,1.572,0,0,1,1.572,1.572" transform="translate(-30.501 -43.696)" fill="#0d5de3"/>
        <line id="Line_2620" data-name="Line 2620" y2="12.698" transform="translate(38.195 55.008)" fill="none" stroke="#2c76a5" stroke-miterlimit="10" stroke-width="1"/>
        <path id="Path_68404" data-name="Path 68404" d="M63.681,90.234A1.135,1.135,0,1,1,62.546,89.1a1.136,1.136,0,0,1,1.135,1.135" transform="translate(-21.98 -31.89)" fill="#2c76a5"/>
        <path id="Path_68405" data-name="Path 68405" d="M63.681,98.056a1.135,1.135,0,1,1-1.135-1.135,1.136,1.136,0,0,1,1.135,1.135" transform="translate(-21.98 -34.69)" fill="#2c76a5"/>
        <path id="Path_68406" data-name="Path 68406" d="M46.016,51.252a38.661,38.661,0,0,1,7.895-1.009A41.834,41.834,0,0,1,62,51.252" transform="translate(-16.47 -17.983)" fill="none" stroke="#d9d9d9" stroke-linecap="round" stroke-linejoin="round" stroke-width="1"/>
        <path id="Path_68407" data-name="Path 68407" d="M47.271,54.976a32.99,32.99,0,0,1,7.27-1.009,35.707,35.707,0,0,1,7.453,1.009" transform="translate(-16.919 -19.316)" fill="none" stroke="#d9d9d9" stroke-linecap="round" stroke-linejoin="round" stroke-width="1"/>
      </g>
    </g>
    <g id="Group_55629" data-name="Group 55629" transform="translate(1309.937 1158.605)">
      <g id="Group_55628" data-name="Group 55628" transform="translate(0 0.001)" clip-path="url(#clip-path-2)">
        <path id="Path_69239" data-name="Path 69239" d="M490.431,1450.665c0,18.173-109.787,32.905-245.215,32.905S0,1468.839,0,1450.665s109.787-32.905,245.215-32.905,245.215,14.732,245.215,32.905" transform="translate(0 -1104.155)" fill="#c8c8c8"/>
        <path id="Path_69240" data-name="Path 69240" d="M1296.279,935.852l50.863,14.736,5.38-25.923-56.243-15.786Z" transform="translate(-1009.545 -707.837)" fill="#a5b1c1"/>
        <path id="Path_69241" data-name="Path 69241" d="M974.5,928.429l-52.339,16.407-5.38-25.923L974.5,901.457Z" transform="translate(-713.992 -702.057)" fill="#a5b1c1"/>
        <path id="Path_69242" data-name="Path 69242" d="M1075.265,640.242a14.589,14.589,0,0,0-14.541-14.552H964.252a14.589,14.589,0,0,0-14.54,14.552v98.93h125.553Z" transform="translate(-739.638 -487.289)" fill="#b7c1cd"/>
        <path id="Path_69243" data-name="Path 69243" d="M1089.838,761.943V700.858a13.245,13.245,0,0,0-13.2-13.212H989.05a13.246,13.246,0,0,0-13.2,13.212v61.085Z" transform="translate(-759.993 -535.541)" fill="#a5b1c1"/>
        <path id="Path_69244" data-name="Path 69244" d="M1088.667,1091.11h-88.485c-5.328,0-9.687-.725-9.687-6.342V1080.9a9.99,9.99,0,0,1,9.687-10.213h88.485a9.99,9.99,0,0,1,9.687,10.213v3.871c0,5.617-4.359,6.342-9.687,6.342" transform="translate(-771.4 -833.851)" fill="#a5b1c1"/>
        <path id="Path_69245" data-name="Path 69245" d="M988.919,1187.774l.349-78.063a9.826,9.826,0,0,1,9.794-9.8h88.271a9.826,9.826,0,0,1,9.794,9.8l-.349,78.063Z" transform="translate(-770.172 -856.613)" fill="#7c8591"/>
        <path id="Path_69246" data-name="Path 69246" d="M890.714,975.629h0a14.311,14.311,0,0,1,14.312,14.311v101.072H876.4V989.94a14.311,14.311,0,0,1,14.311-14.311" transform="translate(-682.545 -759.822)" fill="#a5b1c1"/>
        <path id="Path_69247" data-name="Path 69247" d="M1475.835,975.5h0a14.311,14.311,0,0,0-14.311,14.312v101.072h28.623V989.81a14.311,14.311,0,0,0-14.312-14.312" transform="translate(-1138.238 -759.72)" fill="#a5b1c1"/>
        <path id="Path_69248" data-name="Path 69248" d="M1633.045,180.658c15.135,25.108-7.128,31.025-13.106,20.3-4.249-7.626-18.008-39.308-9.376-40.142,4.206-.406,18.851,13.822,22.482,19.846" transform="translate(-1252.137 -125.234)" fill="#7d3b1a"/>
        <path id="Path_69249" data-name="Path 69249" d="M1642.131,204.63c4.435-.705,7.053-3.327,7.623-7.585,1.427-10.656-10.917-29.89-28.386-37.793a.34.34,0,0,0-.28.619c17.214,7.787,29.388,26.654,27.992,37.084-.526,3.931-2.948,6.351-7,7a.34.34,0,0,0,.053.675" transform="translate(-1262.352 -124.003)" fill="#7d3b1a"/>
        <path id="Path_69250" data-name="Path 69250" d="M1550.259,38.991a.339.339,0,0,0,.245-.1c8.824-9.233,11.044-24.279,4.658-31.568-5.722-6.531-11.8-7.39-14.915-7.315-3.764.087-7.26,1.592-9.123,3.927a.339.339,0,1,0,.531.423c1.741-2.182,5.04-3.589,8.607-3.671,3-.076,8.848.759,14.389,7.083,6.172,7.045,3.961,21.654-4.638,30.651a.339.339,0,0,0,.245.574" transform="translate(-1192.386 0)" fill="#7d3b1a"/>
        <path id="Path_69251" data-name="Path 69251" d="M1512.43,239.805c-3.081,1.525,10.681,5.617,16.338,6.026,12.023.868,20.006-4.434,13.945-7.345-10.632-5.106-20.029-3.757-30.284,1.319" transform="translate(-1177.538 -183.224)" fill="#fffffb"/>
        <path id="Path_69252" data-name="Path 69252" d="M1527.55,245.042c-4.827-.348-16.659-3.536-17.082-5.695-.045-.227-.024-.656.618-.974,11.352-5.618,20.783-6.026,30.582-1.321,2.348,1.128,2.385,2.477,2.2,3.18-.677,2.544-6.165,4.906-13.657,4.906-.861,0-1.748-.031-2.657-.1m-16.163-6.06c-.064.032-.271.142-.253.234.273,1.389,11.044,4.757,16.465,5.148,8.8.634,15.018-2.08,15.609-4.306.295-1.108-.835-1.913-1.835-2.394a29.981,29.981,0,0,0-13.188-3.216c-5.242,0-10.679,1.5-16.8,4.533" transform="translate(-1176.344 -182.095)" fill="#f2e8de"/>
        <path id="Path_69253" data-name="Path 69253" d="M1532.276,175.281c-12.769,11.479-29.1,12.369-39.474-1.863,19.693-12.683,8.932-2.381,12.582-27.552.172-1.187.5-1.441,1.557-1.539,4.666-.436,15.618-6.505,14.962-1.643-1.084,8.036-2.781,26.075,10.373,32.6" transform="translate(-1162.598 -109.66)" fill="#fb9a8b"/>
        <path id="Path_69254" data-name="Path 69254" d="M1540.76,195.4c-.336.295,2.855-.749,5.31-2.892,3.54-3.091,5.138-3.453,12.207-14.837-4.2,4.545-8.049,10.6-16.173,11.446.75,4.6.362,4.783-1.344,6.282" transform="translate(-1199.928 -138.372)" fill="#ec795c"/>
        <path id="Path_69255" data-name="Path 69255" d="M1497.973,51.413c-6.152-14.145-7.116-28.968-5.418-33.454,1.773-4.683,3.878-5.283,7.887-7.389,7.98-4.193,10.84-5.547,17.264,2.058,16.336,19.339-10.3,60.477-19.733,38.786" transform="translate(-1161.825 -5.585)" fill="#fb9a8b"/>
        <path id="Path_69256" data-name="Path 69256" d="M1509.6,131.582c.882-.079,1.273-3.5-.868-3.3-1.142.1-.576,3.434.868,3.3" transform="translate(-1174.53 -99.897)" fill="#382823"/>
        <path id="Path_69257" data-name="Path 69257" d="M1555.534,128.285c.882-.079,1.273-3.5-.868-3.3-1.142.1-.576,3.434.868,3.3" transform="translate(-1210.304 -97.329)" fill="#382823"/>
        <path id="Path_69258" data-name="Path 69258" d="M1547.335,107.07a.436.436,0,0,0,.117.813c11.172,2.177,6.494-4.2-.117-.813" transform="translate(-1204.887 -82.597)" fill="#7d3b1a"/>
        <path id="Path_69259" data-name="Path 69259" d="M1498.254,111.368a.436.436,0,0,1,0,.822c-10.735,3.78-7.036-3.213,0-.822" transform="translate(-1161.6 -86.336)" fill="#7d3b1a"/>
        <path id="Path_69260" data-name="Path 69260" d="M1532.112,28.048c.237.983,1.7.98,2.34,1.348,1.673.964,1.811,4.037,2.453,5.726.976,2.569-.595,3.591,1.44,5.681,4.192-14.3,12.1-23.588-1.462-35.174-8.5-7.263-16.819-3.02-19.054.03-11.39,15.544,8.915.1,14.283,22.388" transform="translate(-1179.429 -1.265)" fill="#7d3b1a"/>
        <path id="Path_69261" data-name="Path 69261" d="M1484.594,27.219c-.691,2.334-.957,9.435-.056,13.93-2.51-3.534-9.217-23.256,2.464-28.4,2.159-.951,4.962-1.431,6.654.213,6.191,6.018-6.565,5.825-9.062,14.256" transform="translate(-1152.891 -9.253)" fill="#7d3b1a"/>
        <path id="Path_69262" data-name="Path 69262" d="M1532.928,20.653a.34.34,0,0,0,.3-.5,6.228,6.228,0,0,1-.159-4.658.339.339,0,0,0-.641-.223,6.94,6.94,0,0,0,.2,5.2.34.34,0,0,0,.3.178" transform="translate(-1193.14 -11.715)" fill="#96563a"/>
        <path id="Path_69263" data-name="Path 69263" d="M1498.384,17.886a.34.34,0,0,0,.311-.2c.755-1.7,4.633-3.084,6.5-2.679a.339.339,0,0,0,.145-.663c-2.172-.478-6.372,1.058-7.266,3.066a.339.339,0,0,0,.31.478" transform="translate(-1166.68 -11.102)" fill="#96563a"/>
        <path id="Path_69264" data-name="Path 69264" d="M1513.068,25.254a.34.34,0,0,0,.277-.142,3.412,3.412,0,0,1,3.162-1.483.361.361,0,0,0,.344-.334.34.34,0,0,0-.334-.345,4.053,4.053,0,0,0-3.725,1.767.339.339,0,0,0,.276.537" transform="translate(-1178.117 -17.873)" fill="#96563a"/>
        <path id="Path_69265" data-name="Path 69265" d="M1502.391,37.622a.34.34,0,0,0,.325-.242c.38-1.266,1.477-1.739,2.748-2.287a7.092,7.092,0,0,0,3.229-2.218.34.34,0,0,0-.552-.4,6.466,6.466,0,0,1-2.946,1.99c-1.307.564-2.659,1.147-3.13,2.716a.339.339,0,0,0,.325.437" transform="translate(-1169.801 -25.185)" fill="#96563a"/>
        <path id="Path_69266" data-name="Path 69266" d="M1485.138,67.186a.358.358,0,0,0,.073-.008.34.34,0,0,0,.259-.4c-.912-4.179-1.7-8.969-.644-12.81a.34.34,0,1,0-.655-.18c-1.1,3.983-.294,8.875.635,13.135a.34.34,0,0,0,.332.267" transform="translate(-1155.464 -41.693)" fill="#96563a"/>
        <path id="Path_69267" data-name="Path 69267" d="M1539.354,7.54a6.548,6.548,0,0,0,2.56-1.2c1.124-.737,2.186-1.433,3.339-1.081a4.34,4.34,0,0,1,.779.41,3.716,3.716,0,0,0,2.938.763.34.34,0,0,0-.2-.65,3.165,3.165,0,0,1-2.39-.7,4.587,4.587,0,0,0-.93-.478c-1.458-.445-2.7.372-3.911,1.163a6.071,6.071,0,0,1-2.235,1.094.339.339,0,0,0,.048.676" transform="translate(-1198.588 -3.49)" fill="#96563a"/>
        <path id="Path_69268" data-name="Path 69268" d="M1538.467,24.512a.338.338,0,0,0,.259-.12c.343-.4,1.159-.347,1.949-.291a3.116,3.116,0,0,0,2.122-.294.34.34,0,0,0-.422-.533,2.863,2.863,0,0,1-1.653.149c-.913-.066-1.949-.137-2.515.529a.34.34,0,0,0,.259.559" transform="translate(-1197.897 -18.07)" fill="#96563a"/>
        <path id="Path_69269" data-name="Path 69269" d="M1555.43,38.714a.335.335,0,0,0,.168-.045.339.339,0,0,0,.126-.463c-1.345-2.352-3.952-2.577-6.473-2.794a12.2,12.2,0,0,1-4.4-.912.34.34,0,1,0-.309.6,12.667,12.667,0,0,0,4.653.985c2.455.212,4.774.412,5.942,2.455a.34.34,0,0,0,.3.171" transform="translate(-1202.747 -26.838)" fill="#96563a"/>
        <path id="Path_69270" data-name="Path 69270" d="M1614.091,44.794a.339.339,0,0,0,.338-.308c.717-7.8-2.892-13.117-6.652-14.168a.34.34,0,1,0-.182.654c3.5.976,6.842,6.023,6.158,13.451a.339.339,0,0,0,.307.369h.031" transform="translate(-1251.805 -23.602)" fill="#96563a"/>
        <path id="Path_69271" data-name="Path 69271" d="M1600.924,95.37a.339.339,0,0,0,.327-.251c.431-1.6,1.1-2.231,2.394-2.253a.339.339,0,0,0,.334-.345.37.37,0,0,0-.345-.334c-1.616.029-2.524.853-3.037,2.756a.339.339,0,0,0,.328.428" transform="translate(-1246.539 -71.796)" fill="#96563a"/>
        <path id="Path_69272" data-name="Path 69272" d="M1619.232,132.915a8.025,8.025,0,0,1-.076-2.006,3.9,3.9,0,0,0-.217-2.053.339.339,0,0,1,.552-.4,4.12,4.12,0,0,1,.344,2.477c-.017.4-.035.808-.017,1.187.787-1.294,2.34-4.806,2.045-6.316a.34.34,0,0,1,.667-.13c.4,2.026-2.027,7.376-2.838,7.545a.4.4,0,0,1-.081.009.389.389,0,0,1-.377-.318" transform="translate(-1260.784 -97.666)" fill="#96563a"/>
        <path id="Path_69273" data-name="Path 69273" d="M1646.189,187.835a.34.34,0,0,0,.178-.629c-5.051-3.1-9.134-9.451-9.668-11.855.812.723,2.611,2.408,5.794,5.474l.125.12a.34.34,0,0,0,.469-.492l-.122-.117c-6.387-6.152-6.471-6.12-6.734-6.039a.35.35,0,0,0-.236.257c-.418,1.957,4.153,9.632,10.019,13.232a.339.339,0,0,0,.177.05" transform="translate(-1274.094 -135.729)" fill="#96563a"/>
        <path id="Path_69274" data-name="Path 69274" d="M1633.316,193.788a.339.339,0,0,0,.219-.6,13.2,13.2,0,0,1-4.579-10.689.339.339,0,0,0-.318-.359.333.333,0,0,0-.359.319,13.892,13.892,0,0,0,4.818,11.249.337.337,0,0,0,.219.08" transform="translate(-1268.089 -141.851)" fill="#96563a"/>
        <path id="Path_69275" data-name="Path 69275" d="M1727.343,287.3a.339.339,0,0,0,.332-.272c.789-3.878,1.105-8.414-2.524-12.647a.34.34,0,0,0-.516.442c2.772,3.233,3.46,6.73,2.375,12.07a.339.339,0,0,0,.265.4.323.323,0,0,0,.068.007" transform="translate(-1343.086 -213.596)" fill="#96563a"/>
        <path id="Path_69276" data-name="Path 69276" d="M1520.873,140.806c.83,1.744,3.332,5.647,3.332,5.647-3.079,17.555-20.461,24.491-24.05-4.056.778,1,8.939,1.494,20.718-1.591" transform="translate(-1168.324 -109.66)" fill="#fff"/>
        <path id="Path_69277" data-name="Path 69277" d="M1591.516,116.59a.255.255,0,0,0,.237-.162c.255-.649.541-1.522.844-2.447.646-1.977,1.727-5.28,2.392-5.28.07,0,.4.092.752,1.6a.255.255,0,1,0,.5-.117c-.318-1.352-.694-1.965-1.218-1.987-.974-.057-1.784,2.2-2.906,5.631-.3.918-.583,1.784-.833,2.419a.255.255,0,0,0,.144.33.251.251,0,0,0,.093.018" transform="translate(-1239.278 -84.26)" fill="#fff"/>
        <path id="Path_69278" data-name="Path 69278" d="M1605.478,141.821a.254.254,0,0,0,.242-.176,72.12,72.12,0,0,0,2.224-8.315.255.255,0,1,0-.5-.092,71.636,71.636,0,0,1-2.208,8.251.254.254,0,0,0,.164.321.249.249,0,0,0,.078.012" transform="translate(-1250.152 -103.603)" fill="#fff"/>
        <path id="Path_69279" data-name="Path 69279" d="M1536.443,187.7a.34.34,0,0,0,.16-.639,8.392,8.392,0,0,1-3.693-9.347.34.34,0,1,0-.657-.174,9.1,9.1,0,0,0,4.03,10.119.34.34,0,0,0,.16.04" transform="translate(-1193.086 -138.07)" fill="#d2d4d5"/>
        <path id="Path_69280" data-name="Path 69280" d="M1603.117,107.574c-2.483.252-.73,4.951.2,7.257,1.84,4.547,3.706-7.654-.2-7.257" transform="translate(-1247.52 -83.771)" fill="#fb9a8b"/>
        <path id="Path_69281" data-name="Path 69281" d="M1608.507,118.5a.18.18,0,0,0-.279.228c.911,1.117.828,2.024.421,2.526a.18.18,0,0,0,.026.253c.513.417,1.135-1.409-.168-3.007" transform="translate(-1252.458 -92.232)" fill="#ec795c"/>
        <path id="Path_69282" data-name="Path 69282" d="M1177.69,754.38c-.059,3.9-1.5,4.185-2.051,3.42-3.307-4.579,3.8-12.915,6.064-13.607-2.12,3.181-3.952,6.159-4.014,10.186" transform="translate(-914.919 -579.58)" fill="#e1715b"/>
        <path id="Path_69283" data-name="Path 69283" d="M1170.236,756.684c-1.345,2.917-.838,3.029-1.186,4.744-.472,2.325-2.633,3.97-2.579,2.687.275-6.507.907-12.044,7.122-13.938-.159,1.974-2.508,4.661-3.357,6.506" transform="translate(-908.449 -584.241)" fill="#ec795c"/>
        <path id="Path_69284" data-name="Path 69284" d="M1154.56,731.263a34.888,34.888,0,0,0-1.8,8.279c-.094,1.23,1.257.566,1.909-.352a34.421,34.421,0,0,0,2.128-4.552c3.193-7,14.146-6.379,9.2-1.849-.916.839-2.167,1.358-2.791,2.432-.382.659-.361,2.579,1.215,1.835,6.708-3.171,5.174-2.9,8.625-7.95.734-1.075,5.774-4.411,2.467-7.472-3.589-3.322-19.715,6.87-20.958,9.63" transform="translate(-897.772 -561.497)" fill="#ff9b86"/>
        <path id="Path_69285" data-name="Path 69285" d="M1274.676,310.6c-8.167,47.781-4.771,44.921-48.464,76.722a2.759,2.759,0,0,1-3.8-.528l-5.922-7.578a2.762,2.762,0,0,1,.211-3.64c9.882-10.006,32.371-32.841,33.6-38.784,2.238-10.862,10.695-49.547,18.713-55.246,4.329-3.077,11.053-2.456,5.667,29.055" transform="translate(-946.949 -218.332)" fill="#fffffb"/>
        <path id="Path_69286" data-name="Path 69286" d="M1220.954,385.825l-5.921-7.578a3.107,3.107,0,0,1,.237-4.088c8.83-8.94,32.284-32.689,33.5-38.614,2.382-11.559,10.78-49.72,18.849-55.455,1.914-1.36,3.725-1.633,5.1-.768,3.746,2.354,4.115,12.5,1.1,30.157-.577,3.377-1.1,6.5-1.579,9.4-6.3,37.907-6.3,37.907-45.828,66.671l-1.192.867a3.089,3.089,0,0,1-4.269-.593M1272.363,279.9c-1.446-.908-3.161-.1-4.346.747-7.866,5.591-16.208,43.54-18.577,55.038-1.118,5.426-18.59,23.668-33.686,38.954a2.428,2.428,0,0,0-.185,3.193l5.921,7.578a2.414,2.414,0,0,0,3.334.463l1.192-.868c39.3-28.6,39.3-28.6,45.557-66.233.482-2.9,1-6.026,1.58-9.4,3.7-21.623,1.61-27.96-.789-29.468" transform="translate(-945.76 -217.151)" fill="#f2e8de"/>
        <path id="Path_69287" data-name="Path 69287" d="M1664.19,1427.8c-5.006,5.372-9.663,4.287-9.663,4.287l-1.8-20.158,11.884,1.014s-.352,11.462-.425,14.857" transform="translate(-1287.15 -1099.614)" fill="#fb9a8b"/>
        <path id="Path_69288" data-name="Path 69288" d="M1466.328,1427.83c-5.028,5.353-9.68,4.248-9.68,4.248l-1.717-20.165,11.88,1.062s-.4,11.461-.484,14.855" transform="translate(-1133.104 -1099.601)" fill="#fb9a8b"/>
        <path id="Path_69289" data-name="Path 69289" d="M1613.421,1490.92c-.249,1.935.159,3.464,2.182,3.6,10.487.7,12.219-.519,17.927-6.794,2.669-2.934,1.682-2.495.346-14.216a.729.729,0,0,0-.981-.6c-3.423,1.251-7.314.338-8.956-.161a.724.724,0,0,0-.925.6c-1.062,7.559-8.448,8.662-9.593,17.574" transform="translate(-1256.486 -1146.957)" fill="#323d4d"/>
        <path id="Path_69290" data-name="Path 69290" d="M1614.385,1493.663a2.626,2.626,0,0,1-1.944-.88,3.964,3.964,0,0,1-.552-3.1c.612-4.763,2.944-7.32,5.2-9.794,2.006-2.2,3.9-4.278,4.394-7.783a1.067,1.067,0,0,1,.484-.753,1.056,1.056,0,0,1,.877-.121c1.509.459,5.384,1.4,8.739.168a1.072,1.072,0,0,1,.938.094,1.055,1.055,0,0,1,.5.783c.338,2.967.659,5.191.894,6.814.716,4.956.775,5.361-1.325,7.669-4.931,5.421-7.058,7.084-13.678,7.084-1.312,0-2.8-.065-4.523-.179m17.431-21.626c-3.549,1.3-7.595.322-9.171-.156a.371.371,0,0,0-.314.043.391.391,0,0,0-.176.275c-.522,3.712-2.486,5.866-4.565,8.146-2.184,2.4-4.443,4.872-5.028,9.423a3.411,3.411,0,0,0,.4,2.583,1.95,1.95,0,0,0,1.465.634c10.551.7,12.092-.569,17.653-6.683,1.885-2.072,1.857-2.261,1.156-7.115-.235-1.628-.557-3.857-.9-6.834a.375.375,0,0,0-.179-.283.394.394,0,0,0-.207-.059.4.4,0,0,0-.141.026" transform="translate(-1255.29 -1145.762)" fill="#211e34"/>
        <path id="Path_69291" data-name="Path 69291" d="M1619.9,1537.187c.951,0,1.931-.037,2.876-.082l.19-.009c5.179-.241,7.364-2.723,10.388-6.159.471-.535.968-1.1,1.505-1.689a.934.934,0,0,0-1.381-1.259c-.546.6-1.049,1.171-1.527,1.714-2.922,3.319-4.685,5.323-9.072,5.527l-.191.009c-1.817.085-5.6.263-6.958-.493a.934.934,0,0,0-.908,1.633,11.474,11.474,0,0,0,5.077.808" transform="translate(-1257.254 -1189.764)" fill="#fff"/>
        <path id="Path_69292" data-name="Path 69292" d="M1641.784,1529.832a8.413,8.413,0,0,0,.986-.052.312.312,0,0,0-.075-.619c-1.683.206-4.858-.232-5.628-1.229a.311.311,0,1,0-.493.38c.852,1.1,3.431,1.519,5.211,1.519" transform="translate(-1274.516 -1189.863)" fill="#fff"/>
        <path id="Path_69293" data-name="Path 69293" d="M1652.246,1511.413a11.366,11.366,0,0,0,2.423-.238.311.311,0,1,0-.136-.608c-2.542.57-6.556.043-7.617-1.386a.311.311,0,1,0-.5.371c.971,1.309,3.545,1.861,5.83,1.861" transform="translate(-1282.185 -1175.256)" fill="#fff"/>
        <path id="Path_69294" data-name="Path 69294" d="M1660.485,1494.164a19.552,19.552,0,0,0,3.08-.254.311.311,0,0,0,.255-.359.308.308,0,0,0-.36-.254c-1.95.333-5.663.537-7.211-.81a.312.312,0,0,0-.409.47c1.105.963,3,1.207,4.645,1.207" transform="translate(-1289.489 -1162.293)" fill="#fff"/>
        <path id="Path_69295" data-name="Path 69295" d="M1415.138,1493.449c-.249,1.935.159,3.464,2.182,3.6,10.487.7,12.219-.519,17.927-6.794,2.669-2.934,1.682-2.495.346-14.216a.729.729,0,0,0-.981-.6c-3.423,1.252-7.313.338-8.955-.162a.724.724,0,0,0-.926.6c-1.063,7.559-8.448,8.662-9.593,17.574" transform="translate(-1102.062 -1148.927)" fill="#323d4d"/>
        <path id="Path_69296" data-name="Path 69296" d="M1416.1,1496.189a2.621,2.621,0,0,1-1.945-.88,3.96,3.96,0,0,1-.552-3.1c.612-4.763,2.945-7.321,5.2-9.794,2.006-2.2,3.9-4.279,4.394-7.783a1.066,1.066,0,0,1,.483-.752,1.052,1.052,0,0,1,.877-.121c1.509.459,5.382,1.4,8.74.168a1.078,1.078,0,0,1,.939.094,1.054,1.054,0,0,1,.5.782c.338,2.967.659,5.191.894,6.814.716,4.956.774,5.36-1.325,7.669-4.931,5.421-7.059,7.084-13.676,7.084-1.312,0-2.8-.065-4.525-.18m17.431-21.626c-3.552,1.3-7.6.323-9.171-.156a.374.374,0,0,0-.315.044.389.389,0,0,0-.176.274c-.522,3.713-2.486,5.866-4.565,8.146-2.184,2.4-4.443,4.873-5.028,9.423a3.408,3.408,0,0,0,.4,2.583,1.948,1.948,0,0,0,1.465.634c10.543.705,12.091-.567,17.653-6.683,1.885-2.072,1.857-2.262,1.156-7.115-.235-1.628-.557-3.857-.9-6.834a.376.376,0,0,0-.178-.282.4.4,0,0,0-.349-.034" transform="translate(-1100.866 -1147.73)" fill="#211e34"/>
        <path id="Path_69297" data-name="Path 69297" d="M1421.621,1539.717c.951,0,1.931-.038,2.877-.082l.186-.009c5.18-.241,7.364-2.724,10.389-6.159.471-.535.967-1.1,1.5-1.689a.934.934,0,0,0-1.381-1.259c-.545.6-1.048,1.17-1.526,1.712-2.922,3.32-4.685,5.323-9.073,5.528l-.187.008c-1.818.085-5.6.263-6.962-.493a.935.935,0,0,0-.908,1.634,11.478,11.478,0,0,0,5.08.808" transform="translate(-1102.831 -1191.734)" fill="#fff"/>
        <path id="Path_69298" data-name="Path 69298" d="M1443.5,1532.36a8.35,8.35,0,0,0,.985-.052.312.312,0,0,0-.075-.619c-1.682.205-4.857-.232-5.628-1.23a.311.311,0,1,0-.493.38c.851,1.1,3.431,1.52,5.211,1.52" transform="translate(-1120.093 -1191.831)" fill="#fff"/>
        <path id="Path_69299" data-name="Path 69299" d="M1453.962,1513.94a11.372,11.372,0,0,0,2.425-.239.312.312,0,1,0-.136-.608c-2.543.573-6.557.044-7.616-1.385a.311.311,0,1,0-.5.371c.971,1.31,3.544,1.861,5.828,1.861" transform="translate(-1127.762 -1177.224)" fill="#fff"/>
        <path id="Path_69300" data-name="Path 69300" d="M1462.2,1496.69a19.569,19.569,0,0,0,3.08-.254.311.311,0,1,0-.1-.613c-1.951.334-5.665.538-7.211-.81a.312.312,0,0,0-.41.47c1.105.962,3,1.207,4.645,1.207" transform="translate(-1135.067 -1164.26)" fill="#fff"/>
        <path id="Path_69301" data-name="Path 69301" d="M1461.335,776.595c-12.614,1.666-26.376,3.107-37.218-3.551-2.365-1.453-2.712-2.445-2.851-4.838-1.075-18.533,1.368-70.116,31.246-77,10.435-2.4,15.247,1.8,19.31,9.646,15.116,29.2,14.5,69.776,13.21,71.514-2.864,3.849-19.055,3.611-23.7,4.224" transform="translate(-1106.734 -537.792)" fill="#fffffb"/>
        <path id="Path_69302" data-name="Path 69302" d="M1422.72,772.154c-2.428-1.492-2.863-2.532-3.012-5.107-.634-10.928.091-27.956,4.026-42.974,5.188-19.8,14.435-31.368,27.483-34.372,10.831-2.493,15.7,2.122,19.688,9.821,14.785,28.563,14.725,69.8,13.181,71.872-2.281,3.067-11.974,3.608-19.052,4-2.033.113-3.79.212-4.874.354a129.984,129.984,0,0,1-16.785,1.389c-7.491,0-14.511-1.214-20.655-4.986m28.649-81.791c-27.655,6.367-32.359,52.919-30.983,76.645.13,2.24.381,3.15,2.689,4.568,10.384,6.377,23.425,5.294,37,3.5,1.11-.147,2.878-.245,4.925-.36,6.552-.366,16.453-.919,18.544-3.73,1.061-1.53,2.108-41.507-13.239-71.156-3.2-6.183-6.791-10.143-13.595-10.143a23.886,23.886,0,0,0-5.337.672" transform="translate(-1105.514 -536.611)" fill="#f2e8de"/>
        <path id="Path_69303" data-name="Path 69303" d="M1379.392,595.641c-10.906,47.914,8.054,169.394,10.548,185.022.415,2.6,3.463,2.731,18.413,2.162a2.35,2.35,0,0,0,2.26-2.271c1.408-43.414-1.816-140.092-1.772-139.7,4.863,44.582,14.17,96.406,24.033,139.9a2.346,2.346,0,0,0,2.421,1.826c16.125-.908,17.631-.937,17.552-3.537-1.17-38.2.338-178.8-8.883-184.479-6.691-4.117-62.067-9.935-64.572,1.07" transform="translate(-1071.661 -458.951)" fill="#474764"/>
        <path id="Path_69304" data-name="Path 69304" d="M1388.357,779.353c-3.626-22.72-21.179-138.424-10.544-185.151.369-1.62,1.8-2.964,4.253-3.994,13.919-5.846,55.279-.7,60.828,2.71,6.694,4.119,7.838,70.823,8.5,144.757.148,16.725.277,31.169.548,40,.088,2.876-1.193,2.948-16.878,3.831l-.994.056a2.681,2.681,0,0,1-2.772-2.089c-10.061-44.373-18.384-91.916-23.122-131.891,1.1,37.459,2.584,99.178,1.532,131.619a2.7,2.7,0,0,1-2.586,2.6c-4.388.168-7.766.275-10.361.275-6.437,0-8.071-.662-8.4-2.722m18.935-139.826c.03-.356.113-.362.277-.373l.326-.021.035.324c4.529,41.518,13.286,92.5,24.026,139.865a1.992,1.992,0,0,0,2.071,1.561l.995-.056c15.155-.852,16.3-.968,16.237-3.131-.271-8.839-.4-23.287-.548-40.016-.5-55.719-1.245-139.922-8.173-144.185-5.369-3.3-46.868-8.266-60.209-2.663-2.239.941-3.536,2.125-3.853,3.519-10.607,46.605,6.929,162.195,10.553,184.893.371,2.328,3.526,2.43,18.065,1.876a2.017,2.017,0,0,0,1.934-1.943c1.1-34.1-.591-100.59-1.7-137.188-.035-1.146-.055-1.826-.045-2.23a.508.508,0,0,1,.012-.234" transform="translate(-1070.414 -457.587)" fill="#211e34"/>
        <path id="Path_69305" data-name="Path 69305" d="M1492.259,632.343a.346.346,0,0,0,.1-.017.34.34,0,0,0,.218-.428c-7.61-23.473-9-30.328-6.408-49.611a.339.339,0,0,0-.673-.09c-2.609,19.422-1.214,26.316,6.435,49.911a.339.339,0,0,0,.323.235" transform="translate(-1155.972 -453.187)" fill="#211e34"/>
        <path id="Path_69306" data-name="Path 69306" d="M1512.184,954.461a.34.34,0,0,0,.339-.326c.818-19.718.275-44.693-.3-71.134-.525-24.108-1.067-49.037-.474-69.5a.339.339,0,0,0-.33-.349.327.327,0,0,0-.349.33c-.594,20.478-.051,45.415.474,69.531.575,26.431,1.118,51.4.3,71.092a.34.34,0,0,0,.325.353h.014" transform="translate(-1176.623 -633.283)" fill="#211e34"/>
        <path id="Path_69307" data-name="Path 69307" d="M1463.876,649.7a.339.339,0,0,0,.107-.662c-4.913-1.637-5.446-2.162-6.232-4.378-3.459-9.744-5.223-19.021-5.1-26.83a.339.339,0,0,0-.334-.344.335.335,0,0,0-.345.334c-.123,7.888,1.654,17.248,5.14,27.068.9,2.54,1.773,3.167,6.658,4.794a.324.324,0,0,0,.107.018" transform="translate(-1130.794 -480.9)" fill="#211e34"/>
        <path id="Path_69308" data-name="Path 69308" d="M1664.332,855.1a.345.345,0,0,0,.339-.365c-2.068-27.447-4.325-56.136-6.508-83.88-2.186-27.774-4.445-56.494-6.515-83.97a.344.344,0,0,0-.364-.313.339.339,0,0,0-.313.364c2.07,27.476,4.329,56.2,6.515,83.972,2.183,27.744,4.44,56.432,6.508,83.877a.339.339,0,0,0,.338.314" transform="translate(-1285.78 -534.703)" fill="#211e34"/>
        <path id="Path_69309" data-name="Path 69309" d="M1472.367,254.9c-1.194,6.756-7.891,11.639-11.594,14.284a3.032,3.032,0,0,1-4.313-.81c-2.086-3.226-5.889-8.375-5.882-12.028,0-1.161-12.2,3.938-16.454,5.663-4.3,27.25-8.942,57-7.08,83.5,5.867,4.3,58.543,1.771,62.784-2.154,5.856-5.418-3.466-84.59-3.466-84.59-2.391-1.218-13.823-4.846-14-3.87" transform="translate(-1111.056 -198.389)" fill="#299fbd"/>
        <path id="Path_69310" data-name="Path 69310" d="M1425.648,344.634l-.127-.093-.011-.157c-1.883-26.808,2.881-56.97,7.084-83.581l.03-.189,1.526-.621c10.741-4.385,14.617-5.7,15.362-5.193a.469.469,0,0,1,.211.4c-.006,3.057,2.83,7.323,4.9,10.438.331.5.644.969.926,1.4a2.656,2.656,0,0,0,1.748,1.176,2.685,2.685,0,0,0,2.083-.459c3.332-2.38,10.266-7.333,11.457-14.067a.482.482,0,0,1,.274-.35c1.365-.684,12.35,3.03,14.209,3.977l.162.082.021.181c.382,3.24,9.274,79.406,3.36,84.878-2.325,2.151-17.7,3.712-31,4.251-3.552.144-7.354.23-11.067.23-9.717,0-18.815-.593-21.149-2.3m45.837-90.71c-1.3,6.945-8.323,11.963-11.709,14.382a3.372,3.372,0,0,1-4.8-.9c-.28-.434-.592-.9-.921-1.4-2.085-3.135-4.927-7.409-5.012-10.654-1.5-.119-10.993,3.778-14.64,5.267l-1.172.478c-4.181,26.475-8.9,56.447-7.058,83.075,2.778,1.768,15.408,2.514,31.661,1.855,15.857-.643,28.711-2.355,30.565-4.07,4.522-4.183-.333-56.742-3.551-84.118-2.736-1.316-12.109-4.161-13.367-3.915" transform="translate(-1109.861 -197.235)" fill="#1585a6"/>
        <path id="Path_69311" data-name="Path 69311" d="M1459.74,506.1a.461.461,0,0,1,.1.868c-7.649,3.551-29.7.374-32.072-1.555-5.605-4.56-3.682-38.84,2.656-41.866,7.673-3.664,5.64,9.746,6.291,13.165,2.428,12.753,11.678,26.9,23.026,29.387" transform="translate(-1109.369 -360.521)" fill="#1585a6"/>
        <path id="Path_69312" data-name="Path 69312" d="M1372.474,449.775c-5.249,1.248-19.847,1.293-20.672-3.2-5.559-30.254,9.989-153.5,22.14-184.321.827-2.1,9.4-4.984,12.838-6.637a.454.454,0,0,1,.62.573c-7.231,19.59-17.312,149.063-12.633,190.265a3.045,3.045,0,0,1-2.294,3.316" transform="translate(-1051.882 -199.042)" fill="#fffffb"/>
        <path id="Path_69313" data-name="Path 69313" d="M1351.822,447.535a3.244,3.244,0,0,1-1.573-2.087c-3.031-16.5.3-58.369,4.426-92.051,5.128-41.85,12.088-78.141,17.732-92.455.609-1.545,4.442-3.227,9.39-5.266,1.39-.572,2.7-1.114,3.617-1.553a.788.788,0,0,1,.876.126.8.8,0,0,1,.21.87c-7.387,20.014-17.129,150.356-12.614,190.109a3.381,3.381,0,0,1-2.553,3.685,38.619,38.619,0,0,1-8.077.743c-4.37,0-9.05-.566-11.434-2.121m19.354.718a2.7,2.7,0,0,0,2.035-2.947c-4.52-39.808,5.249-170.365,12.652-190.422a.115.115,0,0,0-.03-.132.105.105,0,0,0-.125-.016c-.932.449-2.254.993-3.653,1.569-3.573,1.472-8.465,3.488-9.016,4.887-5.625,14.265-12.568,50.491-17.69,92.288-5.258,42.912-6.956,78.106-4.432,91.846a2.6,2.6,0,0,0,1.276,1.641c3.83,2.5,14.606,2.326,18.983,1.287" transform="translate(-1050.663 -197.85)" fill="#f2e8de"/>
        <path id="Path_69314" data-name="Path 69314" d="M1621.975,312.72c.841,14.2,4.293,28.1,6.312,42.179,5.109,35.618,2.224,91.033,11.183,88.788,20.1-5.035,19.14-6.465,19.625-9.218,6.169-34.95-11.435-110.914-19.367-177.121a6.311,6.311,0,0,0-4.2-5.207,65.946,65.946,0,0,0-7.327-2.307c-1.745.136-7.635,39.193-6.231,62.886" transform="translate(-1263.032 -194.571)" fill="#fffffb"/>
        <path id="Path_69315" data-name="Path 69315" d="M1636.4,442.405c-4.193-3.113-5.1-21.967-6.149-43.8-.707-14.7-1.507-31.351-3.445-44.858-.715-4.988-1.626-10.038-2.507-14.922-1.6-8.9-3.264-18.1-3.808-27.284-1.3-21.893,4.059-63.051,6.545-63.244.174-.014.647-.051,7.465,2.325a6.7,6.7,0,0,1,4.42,5.487c2.538,21.184,6.072,43.4,9.49,64.892,7.24,45.516,14.078,88.508,9.874,112.328-.027.154-.05.3-.072.451-.4,2.641-.638,4.234-19.806,9.037a2.472,2.472,0,0,1-.6.076,2.32,2.32,0,0,1-1.406-.489m-15.232-130.9-.339.02.339-.02c.542,9.142,2.2,18.324,3.8,27.2.882,4.89,1.794,9.947,2.511,14.946,1.942,13.539,2.744,30.212,3.451,44.922,1,20.758,1.941,40.365,5.876,43.286a1.621,1.621,0,0,0,1.437.3c18.728-4.692,18.955-6.2,19.3-8.479.023-.152.047-.308.075-.469,4.184-23.707-2.646-66.644-9.876-112.1-3.419-21.495-6.954-43.721-9.494-64.918a5.934,5.934,0,0,0-3.97-4.927,63.2,63.2,0,0,0-7.135-2.285c-1.646,1.81-7.382,38.723-5.973,62.523" transform="translate(-1261.888 -193.373)" fill="#f2e8de"/>
        <path id="Path_69316" data-name="Path 69316" d="M1624.323,319.113a.34.34,0,0,1-.265-.4c1.581-7.8,3.154-14.452,4.542-20.318,4.415-18.662,6.43-27.18-1.073-31.009a.616.616,0,0,1-.337-.585.591.591,0,0,1,.393-.526c3.724-1.363,5.481-2.389,5.877-3.429.325-.855-.227-1.885-.992-3.309a20.062,20.062,0,0,1-2.817-10.909.332.332,0,0,1,.348-.33.34.34,0,0,1,.33.348,19.209,19.209,0,0,0,2.736,10.57c.85,1.583,1.464,2.727,1.028,3.872-.479,1.259-2.2,2.32-6.117,3.766,7.811,4.109,5.621,13.365,1.284,31.7-1.386,5.861-2.958,12.5-4.537,20.3a.34.34,0,0,1-.333.272.354.354,0,0,1-.068-.007" transform="translate(-1264.815 -193.374)" fill="#f2e8de"/>
        <path id="Path_69317" data-name="Path 69317" d="M1465.48,324a.339.339,0,0,0,.339-.328,214.1,214.1,0,0,0-1.45-31.041c-1.312-12.528-1.91-18.246,5.094-19.6a.464.464,0,0,0,.422-.361c.068-.364-.285-.586-1.137-1.122-1.338-.842-3.579-2.25-3.643-4.029-.023-.642,1.271-1.918,2.77-3.4,2.233-2.2,5.291-5.217,7.144-9.035a.339.339,0,1,0-.61-.3c-1.8,3.712-4.812,6.68-7.01,8.848-1.81,1.784-3.006,2.964-2.972,3.9.077,2.139,2.508,3.667,3.96,4.58.176.111.363.228.518.332-7.159,1.632-6.5,7.933-5.211,20.242a213.5,213.5,0,0,1,1.447,30.948.34.34,0,0,0,.328.351Z" transform="translate(-1139.295 -198.29)" fill="#f2e8de"/>
        <path id="Path_69318" data-name="Path 69318" d="M1690.76,734.313c.278,1.341.106,1.677-.5,1.838a124.183,124.183,0,0,1-15.584,3.116c-2.078.279-4.567-13.943-5.009-16.992-.222-1.533,12.763-4.266,17.6-2.5,0,0,1.473,4.826,3.489,14.533" transform="translate(-1300.341 -560.118)" fill="#fffffb"/>
        <path id="Path_69319" data-name="Path 69319" d="M1668.218,721.2a.845.845,0,0,1,.395-.763c1.94-1.575,13.135-3.73,17.635-2.08l.15.055.047.154c.015.048,1.5,4.951,3.5,14.562.258,1.241.218,1.961-.729,2.215a125.123,125.123,0,0,1-15.624,3.125.7.7,0,0,1-.086.005c-2.706,0-5.26-17.1-5.285-17.271m1.166-.5c-.509.28-.529.416-.529.409.981,6.773,3.338,16.861,4.648,16.72a124.3,124.3,0,0,0,15.543-3.108c.325-.087.539-.144.265-1.462-1.793-8.632-3.17-13.447-3.436-14.35-4.122-1.381-13.837.332-16.491,1.791" transform="translate(-1299.207 -558.997)" fill="#f2e8de"/>
        <path id="Path_69320" data-name="Path 69320" d="M1684.372,703.5l-.777-4.084c-.163-.859-17.773,1.994-17.463,3.507l.637,3.112c.165.8,17.893-1.015,17.6-2.535" transform="translate(-1297.584 -544.582)" fill="#fffffb"/>
        <path id="Path_69321" data-name="Path 69321" d="M1665.32,704.963l-.637-3.112a.639.639,0,0,1,.265-.621c1.7-1.5,15.84-3.914,17.5-3.345a.442.442,0,0,1,.326.335l.777,4.084c.108.565-.506,1.076-3.85,1.736a92.1,92.1,0,0,1-12.252,1.361c-1.238,0-2.068-.122-2.133-.438m16.851-6.491a43.684,43.684,0,0,0-8.605,1c-5.738,1.044-8.081,1.955-8.251,2.253l.61,2.985a45.44,45.44,0,0,0,8.639-.523c5.663-.7,8.071-1.451,8.351-1.8Z" transform="translate(-1296.451 -543.449)" fill="#f2e8de"/>
        <path id="Path_69322" data-name="Path 69322" d="M1364.065,744.746q4.2.426,8.433.567c2.1.069,3.149-14.33,3.283-17.408.041-.942-4.831-1.836-9.7-1.885Z" transform="translate(-1062.337 -565.425)" fill="#fffffb"/>
        <path id="Path_69323" data-name="Path 69323" d="M1371.239,744.49c-2.814-.093-5.659-.284-8.455-.569l-.322-.032,2.086-19.339.292,0c4.06.041,8.836.693,9.8,1.711a.691.691,0,0,1,.214.511c-.008.178-.849,17.716-3.593,17.716Zm-8.068-1.177c2.678.265,5.4.445,8.1.534,1.321,0,2.645-10.279,2.943-17.088-.184-.568-4.143-1.475-9.088-1.558Z" transform="translate(-1061.089 -564.281)" fill="#f2e8de"/>
        <path id="Path_69324" data-name="Path 69324" d="M1372.979,708.7c4.712.333,9.718,1.02,9.635,1.838-.371,3.636,1.336,4.015-10.284,3.637Z" transform="translate(-1068.774 -551.939)" fill="#fffffb"/>
        <path id="Path_69325" data-name="Path 69325" d="M1371.049,713.292l-.351-.012.727-6.127.306.021c2.655.188,8.923.735,9.789,1.765a.561.561,0,0,1,.143.426c-.047.46-.06.867-.072,1.226-.04,1.252-.069,2.158-1.58,2.547a16.151,16.151,0,0,1-3.67.27c-1.353,0-3.079-.044-5.292-.116m.371-.632c4.743.15,7.232.164,8.431-.145,1.044-.27,1.058-.725,1.1-1.945a11.278,11.278,0,0,1,.084-1.21c-.272-.44-3.525-1.116-9.041-1.521Z" transform="translate(-1067.503 -550.733)" fill="#f2e8de"/>
        <path id="Path_69326" data-name="Path 69326" d="M1620.049,163.632c.554-2,2.374-3.166,2.645-3.009.366.212-.074.862-.162,1.152a5.3,5.3,0,0,1-.56,1.731c-.835,1.153-2.335,1.61-1.923.126" transform="translate(-1261.643 -125.083)" fill="#fffffb"/>
        <path id="Path_69327" data-name="Path 69327" d="M1619.3,163.926c-.2-.095-.494-.372-.274-1.163a5.07,5.07,0,0,1,2.5-3.121.533.533,0,0,1,.477-.025c.46.266.2.845.038,1.19a2.188,2.188,0,0,0-.1.227c-.055.183-.093.367-.13.549a3.057,3.057,0,0,1-.463,1.25,2.609,2.609,0,0,1-1.743,1.161.714.714,0,0,1-.313-.068m.168-1.041c-.092.333-.081.573.031.627.237.112.967-.233,1.485-.949a2.673,2.673,0,0,0,.385-1.073c.04-.2.081-.393.141-.59a2.623,2.623,0,0,1,.117-.284c.075-.163.249-.544.2-.585a4.379,4.379,0,0,0-2.359,2.855" transform="translate(-1260.839 -124.275)" fill="#f2e8de"/>
        <path id="Path_69328" data-name="Path 69328" d="M1457.646,599.363l-.21-.592c-.169-.476.208-.4-13.992,4.643l.417,1.174,13.6-4.831a.308.308,0,0,0,.188-.394" transform="translate(-1124.158 -466.178)" fill="#514342"/>
        <path id="Path_69329" data-name="Path 69329" d="M1469.229,607.462a.329.329,0,0,0,.309-.438l-1.44-4.054a.328.328,0,1,0-.619.22l1.44,4.054a.329.329,0,0,0,.309.219" transform="translate(-1142.862 -469.424)" fill="#463c3a"/>
        <path id="Path_69330" data-name="Path 69330" d="M1503.874,593.918a.329.329,0,0,0,.309-.438l-1.643-4.625a.328.328,0,1,0-.619.22l1.643,4.625a.328.328,0,0,0,.309.219" transform="translate(-1169.685 -458.432)" fill="#463c3a"/>
        <path id="Path_69331" data-name="Path 69331" d="M1375.615,636.581a.323.323,0,0,0,.116-.021l7.891-2.985a.328.328,0,1,0-.232-.614l-7.891,2.985a.328.328,0,0,0,.116.635" transform="translate(-1071.077 -492.935)" fill="#bce8f6"/>
        <path id="Path_69332" data-name="Path 69332" d="M1407.9,616.556a2.173,2.173,0,0,0,.726-.133l9.944-3.533a.329.329,0,0,0,.2-.42l-1.089-3.065a.327.327,0,0,0-.42-.2l-9.944,3.533a1.824,1.824,0,0,0-1.264,2.116,1.959,1.959,0,0,0,1.847,1.7" transform="translate(-1095.014 -474.436)" fill="#dcf3fc"/>
        <path id="Path_69333" data-name="Path 69333" d="M1416.214,608.359l1.09,3.065-9.944,3.533a1.846,1.846,0,0,1-.616.114,1.631,1.631,0,0,1-1.523-1.429,1.5,1.5,0,0,1,1.051-1.751l9.944-3.533m0-.657a.662.662,0,0,0-.22.038l-9.944,3.533a2.3,2.3,0,0,0,.693,4.455,2.486,2.486,0,0,0,.836-.152l9.944-3.533a.657.657,0,0,0,.4-.839l-1.089-3.065a.658.658,0,0,0-.619-.438" transform="translate(-1093.856 -473.28)" fill="#bce8f6"/>
        <path id="Path_69334" data-name="Path 69334" d="M1467.655,582.256c-1.1,1.778-23.678,11.249-26.226,11.071-.727-.051-2.033-1.4-2.43-2.015-3.319-5.1-4.307-5.844-.759-7.587a.266.266,0,0,0-.15-.5c-13.812,1.6-10.509-2.427-6.6-2.414,5.163.017,9.409-1.32,14.106-2.582a.841.841,0,0,0,.527-1.206,22.4,22.4,0,0,1-2.034-4.573.964.964,0,0,1,1.523-1.025c5.337,4.309,10.294,6.379,17.256,4.377,1.213-.349,2.522-1.446,3.568-.706.968.685,1.7,6.4,1.225,7.161" transform="translate(-1112.195 -444.858)" fill="#fb9a8b"/>
        <path id="Path_69335" data-name="Path 69335" d="M1511.869,603.818a.34.34,0,0,0,.108-.662,3.976,3.976,0,0,1-2.021-2.134.34.34,0,0,0-.635.24,4.607,4.607,0,0,0,2.441,2.539.346.346,0,0,0,.108.017" transform="translate(-1175.446 -467.906)" fill="#ec795c"/>
        <path id="Path_69336" data-name="Path 69336" d="M1473.264,632.217a5.241,5.241,0,0,0,3.933-1.865.339.339,0,0,0-.534-.419,4.528,4.528,0,0,1-3.428,1.606.34.34,0,0,0,.029.678" transform="translate(-1147.117 -490.493)" fill="#ec795c"/>
        <path id="Path_69337" data-name="Path 69337" d="M1479.34,643.185c1.584,0,3.437-1.4,4.279-2.433a.34.34,0,0,0-.527-.429c-.758.93-2.519,2.272-3.875,2.178a.339.339,0,0,0-.044.678c.055,0,.111.005.167.005" transform="translate(-1151.736 -498.588)" fill="#ec795c"/>
        <path id="Path_69338" data-name="Path 69338" d="M1487.8,653.946a5.876,5.876,0,0,0,4.511-2.4.339.339,0,1,0-.588-.34,5.2,5.2,0,0,1-3.933,2.06.34.34,0,0,0,.01.679" transform="translate(-1158.435 -507.029)" fill="#ec795c"/>
        <path id="Path_69339" data-name="Path 69339" d="M1613.65,334.334c-5.181,9.623-34.985,14.423-47.882,15.859a2.75,2.75,0,0,1-2.947-1.936,42.64,42.64,0,0,1-1.733-10.716,2.759,2.759,0,0,1,2.041-2.734,179.681,179.681,0,0,0,30.469-11.482,4.058,4.058,0,0,0,2.2-4.521c-6.953-31.484-6.593-54.375-5.512-53.638,3.67,2.5,28.536,59.556,23.362,69.167" transform="translate(-1215.777 -206.499)" fill="#fffffb"/>
        <path id="Path_69340" data-name="Path 69340" d="M1561.3,347.158a42.944,42.944,0,0,1-1.747-10.8,3.089,3.089,0,0,1,2.29-3.072,179.649,179.649,0,0,0,30.411-11.46,3.7,3.7,0,0,0,2.019-4.142c-6.485-29.366-6.826-53.075-5.468-53.994a.419.419,0,0,1,.479,0c1.993,1.359,9.343,16.948,15.124,32.077,4.426,11.585,11.4,31.865,8.346,37.531-5.818,10.807-41.125,15.254-48.143,16.036a3.168,3.168,0,0,1-.35.02,3.08,3.08,0,0,1-2.96-2.2m33.637-29.622a4.382,4.382,0,0,1-2.386,4.9,180.369,180.369,0,0,1-30.527,11.5,2.411,2.411,0,0,0-1.792,2.4,42.244,42.244,0,0,0,1.719,10.63,2.4,2.4,0,0,0,2.584,1.7c19.226-2.142,43.233-7.534,47.621-15.683,2.134-3.965-.921-17.439-8.383-36.967-5.933-15.528-12.62-29.426-14.639-31.551-.665,2.686-.631,23.949,5.8,53.076" transform="translate(-1214.582 -205.304)" fill="#f2e8de"/>
        <path id="Path_69341" data-name="Path 69341" d="M1027.13,1363.036l-2.541,40.876,20.449,1.589v-43.307Z" transform="translate(-797.953 -1060.88)" fill="#1a1a1a"/>
        <path id="Path_69342" data-name="Path 69342" d="M991.46,1526.2a103.543,103.543,0,0,1-10.447,6.472c-3.671,1.737-1.694,11.05-1.694,11.05h30.776s1.858-16.21-2.177-18.287-16.458.764-16.458.764" transform="translate(-762.282 -1187.425)" fill="#1a1a1a"/>
        <path id="Path_69343" data-name="Path 69343" d="M1221.063,1363.036l2.541,40.876-20.449,1.589v-43.307Z" transform="translate(-937.02 -1060.88)" fill="#1a1a1a"/>
        <path id="Path_69344" data-name="Path 69344" d="M1217,1526.2a103.554,103.554,0,0,0,10.447,6.472c3.671,1.737,1.694,11.05,1.694,11.05h-30.776s-1.858-16.21,2.177-18.287,16.458.764,16.458.764" transform="translate(-932.958 -1187.425)" fill="#1a1a1a"/>
        <path id="Path_69345" data-name="Path 69345" d="M1064.546,898.024c-.409-6.181-15.123-33.085-15.123-33.085H1003.97s-14.715,26.9-15.123,33.085,2.452,10.907,5.722,12.362c2.883,1.282,61.372,1.282,64.255,0,3.27-1.454,6.131-6.181,5.722-12.362" transform="translate(-770.086 -673.617)" fill="#42210b"/>
        <path id="Path_69346" data-name="Path 69346" d="M1020.068,952.645c-10.549,0-16.108,6.856-16.108,13.439l3.705,106.271c0,6.583,23.64,6.481,23.64-.1,0,0,2.3-60.843,2.662-72.882s1.665-35.5,1.665-35.5c0-6.583-5.016-11.224-15.564-11.224" transform="translate(-781.886 -741.922)" fill="#42210b"/>
        <path id="Path_69347" data-name="Path 69347" d="M1192.271,950.317c10.549,0,16.108,6.856,16.108,13.439l-4.232,105.82c0,6.583-22.959,7.588-22.959,1.005,0,0-2.458-61.5-2.817-73.538s-1.665-35.5-1.665-35.5c0-6.583,5.015-11.224,15.564-11.224" transform="translate(-916.422 -740.109)" fill="#42210b"/>
        <path id="Path_69348" data-name="Path 69348" d="M1046.534,508.368h-20.192l-20.7,7.513-4.323,87.311h70.244l-4.323-87.311Z" transform="translate(-779.827 -395.918)" fill="#02b7b7"/>
        <path id="Path_69349" data-name="Path 69349" d="M1163.986,503.58l10.907,6.678,2.146-15.349a5.969,5.969,0,0,0-1.443-2.418,5.391,5.391,0,0,0-2.808-1.627h-2.911v1.054s3.285,1.136,1.123,4.27a54.368,54.368,0,0,1-7.014,7.392" transform="translate(-906.515 -382.285)" fill="#007c7c"/>
        <path id="Path_69350" data-name="Path 69350" d="M1111.307,503.58l-10.907,6.678-2.146-15.349a5.967,5.967,0,0,1,1.443-2.418,5.388,5.388,0,0,1,2.808-1.627h2.912v1.054s-3.285,1.136-1.123,4.27a54.382,54.382,0,0,0,7.014,7.392" transform="translate(-855.323 -382.285)" fill="#007c7c"/>
        <path id="Path_69351" data-name="Path 69351" d="M1130.384,436.945h0c-4.724,0-8.589-4.533-8.589-10.073V409.161c0-5.54,17.178-5.54,17.178,0v17.711c0,5.54-3.865,10.073-8.589,10.073" transform="translate(-873.657 -315.419)" fill="#faa085"/>
        <path id="Path_69352" data-name="Path 69352" d="M1139.878,414.279c0,3.948-3.684,7.149-8.23,7.149s-8.23-3.2-8.23-7.149,3.684-7.149,8.23-7.149,8.23,3.2,8.23,7.149" transform="translate(-874.921 -317.074)" fill="#ba604e"/>
        <path id="Path_69353" data-name="Path 69353" d="M1065.283,353.687c0,2.845-1.24,5.151-4.085,5.151a5.151,5.151,0,1,1,0-10.3c2.845,0,4.085,2.306,4.085,5.151" transform="translate(-822.451 -271.441)" fill="#faa085"/>
        <path id="Path_69354" data-name="Path 69354" d="M1224.848,353.687c0,2.845,1.24,5.151,4.085,5.151a5.151,5.151,0,1,0,0-10.3c-2.845,0-4.085,2.306-4.085,5.151" transform="translate(-953.915 -271.441)" fill="#faa085"/>
        <path id="Path_69355" data-name="Path 69355" d="M1088.3,267.609c-13.772,0-16.828-16.557-16.828-16.557L1068,229.271c0-10.7,9.728-15.976,20.3-15.976s19.726,5.272,19.726,15.976l-2.9,21.782s-3.057,16.557-16.828,16.557" transform="translate(-831.763 -166.115)" fill="#faa085"/>
        <path id="Path_69356" data-name="Path 69356" d="M1110.569,375.639c-4.86.374-11.448,4.214-12.708,9.911,2.47,4.2,7.1,9.881,14.093,9.881,8.045,0,12.036-7.053,14.294-11.752a17.033,17.033,0,0,0-15.679-8.041" transform="translate(-855.017 -292.534)" fill="#ccc"/>
        <path id="Path_69357" data-name="Path 69357" d="M1187.174,353.032c-1.115-.235-2.524-.442-3.519.269a4.178,4.178,0,0,0-1.454,3.566c.49,3,5,2.629,6.694,1.083,2.112-1.928.742-4.4-1.72-4.918" transform="translate(-920.676 -274.771)" fill="#e36b5d"/>
        <path id="Path_69358" data-name="Path 69358" d="M1113.834,353.73a3.531,3.531,0,0,0-1.392-.553c-1.871-.3-4.846.106-5.3,2.236-.386,1.81,1.363,3.37,3.1,3.757a3.609,3.609,0,0,0,4.406-2.2,3.679,3.679,0,0,0-.815-3.237" transform="translate(-862.204 -274.986)" fill="#e36b5d"/>
        <path id="Path_69359" data-name="Path 69359" d="M1128.964,339.692h0a1.335,1.335,0,0,1-1.331-1.331V337.3a1.331,1.331,0,1,1,2.661,0v1.065a1.335,1.335,0,0,1-1.331,1.331" transform="translate(-878.203 -261.651)" fill="#1c2336"/>
        <path id="Path_69360" data-name="Path 69360" d="M1130.646,340.259a.237.237,0,1,1-.236-.237.236.236,0,0,1,.236.237" transform="translate(-880.181 -264.81)" fill="#e6e6e6"/>
        <path id="Path_69361" data-name="Path 69361" d="M1181.369,339.692h0a1.335,1.335,0,0,1-1.331-1.331V337.3a1.331,1.331,0,1,1,2.661,0v1.065a1.334,1.334,0,0,1-1.331,1.331" transform="translate(-919.016 -261.651)" fill="#1c2336"/>
        <path id="Path_69362" data-name="Path 69362" d="M1183.051,340.259a.237.237,0,1,1-.237-.237.236.236,0,0,1,.237.237" transform="translate(-920.995 -264.81)" fill="#e6e6e6"/>
        <path id="Path_69363" data-name="Path 69363" d="M1121.293,322.822a.541.541,0,0,1-.475-.8,3.623,3.623,0,0,1,3.97-1.741.541.541,0,1,1-.264,1.048,2.548,2.548,0,0,0-2.755,1.209.54.54,0,0,1-.476.283" transform="translate(-872.845 -249.359)" fill="#1c2336"/>
        <path id="Path_69364" data-name="Path 69364" d="M1155.3,356.139a2.284,2.284,0,1,1-2.284-2.284,2.284,2.284,0,0,1,2.284,2.284" transform="translate(-896.194 -275.583)" fill="#d67558"/>
        <path id="Path_69365" data-name="Path 69365" d="M1155.544,351.5h0a1.57,1.57,0,0,1-1.566-1.566v-3.955a1.566,1.566,0,1,1,3.131,0v3.955a1.57,1.57,0,0,1-1.566,1.566" transform="translate(-898.721 -268.231)" fill="#e36b5d"/>
        <path id="Path_69366" data-name="Path 69366" d="M1150.65,383.6a5.788,5.788,0,0,1-4.728-2.436.509.509,0,0,1,.838-.578,4.8,4.8,0,0,0,5.252,1.785.509.509,0,0,1,.313.969,5.456,5.456,0,0,1-1.675.26" transform="translate(-892.377 -296.228)" fill="#be3939"/>
        <path id="Path_69367" data-name="Path 69367" d="M1180.687,322.822a.541.541,0,0,0,.475-.8,3.623,3.623,0,0,0-3.97-1.741.541.541,0,1,0,.265,1.048,2.549,2.549,0,0,1,2.755,1.209.54.54,0,0,0,.476.283" transform="translate(-916.482 -249.359)" fill="#1c2336"/>
        <path id="Path_69368" data-name="Path 69368" d="M1111.341,347.7s-8.56,2.226-14.12,2.933c0,0,1.29,10.4.605,12.447s5.91,9.836,13.629,9.836Z" transform="translate(-854.518 -270.79)" fill="#6bc2d1"/>
        <path id="Path_69369" data-name="Path 69369" d="M1161.056,347.7s8.56,2.226,14.12,2.933c0,0-1.29,10.4-.605,12.447s-5.8,9.836-13.515,9.836Z" transform="translate(-904.233 -270.79)" fill="#8fd1dc"/>
        <path id="Path_69370" data-name="Path 69370" d="M1218.717,342.15l6.779-6.192V334.2l-7.462,6.41Z" transform="translate(-948.608 -260.274)" fill="#8fd1dc"/>
        <path id="Path_69371" data-name="Path 69371" d="M1222.245,392.534l-.2,1.885-2.661,4.237-.393-1.355Z" transform="translate(-949.354 -305.707)" fill="#8fd1dc"/>
        <path id="Path_69372" data-name="Path 69372" d="M1075.771,343.373l-6.78-6.192V335.42l7.462,6.41Z" transform="translate(-832.533 -261.226)" fill="#6bc2d1"/>
        <path id="Path_69373" data-name="Path 69373" d="M1086.321,393.877l.363,1.859,2.661,4.237.393-1.354Z" transform="translate(-846.029 -306.752)" fill="#6bc2d1"/>
        <path id="Path_69374" data-name="Path 69374" d="M1111.93,331.536a2.875,2.875,0,0,0-2.023-1.239,36.064,36.064,0,0,0-5.4-.012,4.684,4.684,0,0,0-9.038,1.315,3.665,3.665,0,0,0-3.287.022,4.684,4.684,0,0,0-9.067-1.263c-.767,0-4.428.015-5.953.155a2.814,2.814,0,0,0-2.04,1.23.221.221,0,0,0,.377.232,2.407,2.407,0,0,1,1.7-1.022c1.409-.129,4.786-.149,5.773-.152a4.685,4.685,0,1,0,9.217,1.308,3.2,3.2,0,0,1,3.262,0,4.687,4.687,0,1,0,9.2-1.384,35.134,35.134,0,0,1,5.164.01,2.463,2.463,0,0,1,1.72,1.012.221.221,0,0,0,.391-.207m-24.417,4.692a4.247,4.247,0,1,1,4.247-4.247,4.252,4.252,0,0,1-4.247,4.247m12.629,0a4.247,4.247,0,1,1,4.247-4.247,4.252,4.252,0,0,1-4.247,4.247" transform="translate(-837.285 -254.895)" fill="#333"/>
        <path id="Path_69375" data-name="Path 69375" d="M1065.113,303.487h0a1.693,1.693,0,0,0,1.688-1.688V283.93a.485.485,0,0,0-.484-.484h-2.408a.485.485,0,0,0-.484.484V301.8a1.693,1.693,0,0,0,1.688,1.688" transform="translate(-828.198 -220.749)" fill="#ccc"/>
        <path id="Path_69376" data-name="Path 69376" d="M1238.2,303.487h0a1.693,1.693,0,0,0,1.688-1.688V283.93a.485.485,0,0,0-.484-.484h-2.408a.485.485,0,0,0-.484.484V301.8a1.693,1.693,0,0,0,1.688,1.688" transform="translate(-962.996 -220.749)" fill="#ccc"/>
        <path id="Path_69377" data-name="Path 69377" d="M1102.129,204.208c-.427-6.546-3.079-14.4-13.353-14.4a24.566,24.566,0,0,0-18.185,7.341,11.46,11.46,0,0,0-8.55,16.325h0a11.458,11.458,0,0,0,20.413.392,23.211,23.211,0,0,1,13.821,1.854,7.241,7.241,0,0,0,5.853-11.518" transform="translate(-826.226 -147.826)" fill="#ccc"/>
        <path id="Path_69378" data-name="Path 69378" d="M905.042,601.691h0a10.057,10.057,0,0,1-5.484-13.077L916.99,546a10.027,10.027,0,0,1,18.562,7.593L918.12,596.206a10.057,10.057,0,0,1-13.077,5.484" transform="matrix(0.996, 0.087, -0.087, 0.996, -642.843, -500.716)" fill="#00c1c1"/>
        <rect id="Rectangle_9317" data-name="Rectangle 9317" width="6.878" height="23.65" transform="matrix(0.012, -1, 1, 0.012, 253.928, 180.843)" fill="#363b48"/>
        <path id="Path_69379" data-name="Path 69379" d="M1169.2,789.122h0a1.571,1.571,0,0,1-1.554-1.972l1.269-6.2a2.489,2.489,0,0,1,2.352-1.924,1.571,1.571,0,0,1,1.554,1.972l-1.269,6.2a2.488,2.488,0,0,1-2.352,1.924" transform="translate(-909.335 -606.711)" fill="#fcb74e"/>
        <path id="Path_69380" data-name="Path 69380" d="M1187.681,789.346h0a1.571,1.571,0,0,1-1.554-1.972l1.269-6.2a2.488,2.488,0,0,1,2.352-1.924,1.571,1.571,0,0,1,1.554,1.972l-1.269,6.2a2.489,2.489,0,0,1-2.352,1.924" transform="translate(-923.727 -606.885)" fill="#fcb74e"/>
        <path id="Path_69381" data-name="Path 69381" d="M1206.162,789.571h0a1.571,1.571,0,0,1-1.554-1.972l1.269-6.2a2.489,2.489,0,0,1,2.352-1.924,1.57,1.57,0,0,1,1.554,1.972l-1.269,6.2a2.489,2.489,0,0,1-2.352,1.924" transform="translate(-938.12 -607.06)" fill="#007c7c"/>
        <path id="Path_69382" data-name="Path 69382" d="M1224.642,789.8h0a1.57,1.57,0,0,1-1.554-1.972l1.269-6.2a2.489,2.489,0,0,1,2.352-1.924,1.57,1.57,0,0,1,1.554,1.972l-1.269,6.2a2.488,2.488,0,0,1-2.352,1.924" transform="translate(-952.512 -607.236)" fill="#007c7c"/>
        <rect id="Rectangle_9318" data-name="Rectangle 9318" width="92.671" height="4.449" transform="translate(251.741 266.677) rotate(-89.302)" fill="#363b48"/>
        <rect id="Rectangle_9319" data-name="Rectangle 9319" width="90.291" height="2.563" transform="translate(251.597 356.072) rotate(-89.303)" fill="#363b48"/>
        <path id="Path_69383" data-name="Path 69383" d="M1132.33,1603.138l4.816.059-.01,1.88-4.816-.059Z" transform="translate(-881.853 -1248.528)" fill="#4d5261"/>
        <rect id="Rectangle_9320" data-name="Rectangle 9320" width="6.073" height="5.529" transform="translate(251.186 268.015) rotate(-89.303)" fill="#292c36"/>
        <rect id="Rectangle_9321" data-name="Rectangle 9321" width="2.863" height="6.986" transform="translate(250.478 266.278) rotate(-89.303)" fill="#4d5261"/>
        <path id="Path_69384" data-name="Path 69384" d="M1315.621,643.05h0c4.026-2.894,2.88-6.991-.013-11.016l-21.338-34.126a9.041,9.041,0,0,0-12.581-2.057h0a9.041,9.041,0,0,0-2.057,12.581l24.95,32.352c2.894,4.026,7.014,5.161,11.04,2.267" transform="translate(-995.266 -462.737)" fill="#faa085"/>
        <path id="Path_69385" data-name="Path 69385" d="M1243.1,566.881l-6.322-8.124c-4.574-6.324-3.742-14.807,1.418-18.538s13.476-1.865,18.05,4.46l6.322,8.124Z" transform="translate(-960.878 -419.236)" fill="#00c1c1"/>
        <rect id="Rectangle_9322" data-name="Rectangle 9322" width="26.326" height="6.118" transform="matrix(0.819, -0.574, 0.574, 0.819, 279.199, 146.004)" fill="#007c7c"/>
        <path id="Path_69386" data-name="Path 69386" d="M1289.491,804.469l-.792-.559c-2.928-2.067-3.315-6.6-.861-10.077l22.606-31.258c2.454-3.475,6.857-4.627,9.784-2.56l.792.559c2.928,2.067,3.315,6.6.861,10.077l-22.606,31.258c-2.454,3.475-6.857,4.627-9.784,2.559" transform="translate(-1001.714 -591.102)" fill="#faa085"/>
        <path id="Path_69387" data-name="Path 69387" d="M1290.321,917.846a8.384,8.384,0,1,0-11.747,1.611,8.384,8.384,0,0,0,11.747-1.611" transform="translate(-993.173 -704.343)" fill="#faa085"/>
        <path id="Path_69388" data-name="Path 69388" d="M1235.955,935.923l.087-1.118a1.5,1.5,0,0,0-1.564-1.479l-16.641-.665a2.288,2.288,0,0,0-2.49,1.878,2.09,2.09,0,0,0,2.183,2.065l16.641.665a1.639,1.639,0,0,0,1.783-1.346" transform="translate(-946.512 -726.357)" fill="#faa085"/>
        <path id="Path_69389" data-name="Path 69389" d="M1241.225,955.667l.087-1.118a1.5,1.5,0,0,0-1.564-1.479l-16.641-.665a2.288,2.288,0,0,0-2.49,1.878,2.09,2.09,0,0,0,2.183,2.065l16.641.665a1.639,1.639,0,0,0,1.784-1.346" transform="translate(-950.616 -741.734)" fill="#faa085"/>
        <path id="Path_69390" data-name="Path 69390" d="M1311.467,954.351h0a2.444,2.444,0,0,0-2.867,1.911l-1.82,9.1a2.437,2.437,0,1,0,4.778.956l1.82-9.1a2.444,2.444,0,0,0-1.911-2.867" transform="translate(-1017.687 -743.214)" fill="#faa085"/>
        <path id="Path_69391" data-name="Path 69391" d="M1260.741,902.953h0a1.5,1.5,0,0,0-1.473-1.63l-14.479-1.512a1.746,1.746,0,0,0-1.961,1.272,1.5,1.5,0,0,0,1.473,1.63l14.479,1.512a1.746,1.746,0,0,0,1.961-1.272" transform="translate(-967.904 -700.767)" fill="#faa085"/>
        <path id="Path_69392" data-name="Path 69392" d="M1242.4,917.636l.053-.317a1.5,1.5,0,0,0-1.473-1.631l-16.437-1.716a1.746,1.746,0,0,0-1.961,1.272l-.053.317a1.5,1.5,0,0,0,1.473,1.631l16.438,1.716a1.745,1.745,0,0,0,1.961-1.272" transform="translate(-952.098 -711.795)" fill="#faa085"/>
        <path id="Path_69393" data-name="Path 69393" d="M1008.257,772.528l-.023.81c-.086,2.993-3.063,5.359-6.617,5.257l-32.207-1.288c-3.553-.1-6.39-2.634-6.3-5.628l.023-.81c.086-2.994,3.063-5.359,6.616-5.257l32.207,1.288c3.553.1,6.39,2.634,6.3,5.628" transform="translate(-750.173 -598.742)" fill="#faa085"/>
        <path id="Path_69394" data-name="Path 69394" d="M946.083,762.14l-34.724-1.735a8.99,8.99,0,1,1,1.4-17.9l34.725,1.735c5.2.406,3.8,18.306-1.4,17.9" transform="translate(-701.084 -581.119)" fill="#00c1c1"/>
        <path id="Path_69395" data-name="Path 69395" d="M1146.662,760.063a9.58,9.58,0,1,1-13.028-3.719,9.58,9.58,0,0,1,13.028,3.719" transform="translate(-879.145 -590.584)" fill="#faa085"/>
        <path id="Path_69396" data-name="Path 69396" d="M1187.84,763.835h0a2.248,2.248,0,0,1-2.9,1.275l-9.341-3.638a1.684,1.684,0,0,1-.956-2.175l.408-1.047a1.684,1.684,0,0,1,2.175-.956l9.341,3.638a2.248,2.248,0,0,1,1.275,2.9" transform="translate(-914.83 -592.177)" fill="#faa085"/>
        <path id="Path_69397" data-name="Path 69397" d="M1163.4,733.914a3.5,3.5,0,1,1-4.761-1.359,3.5,3.5,0,0,1,4.761,1.359" transform="translate(-901.053 -572.655)" fill="#faa085"/>
        <path id="Path_69398" data-name="Path 69398" d="M851.144,802.625l.218-.063a6.218,6.218,0,0,0,4.234-7.678l-7.7-26.62a6.218,6.218,0,0,0-7.678-4.234l-.218.063a6.219,6.219,0,0,0-4.234,7.678l7.7,26.62a6.218,6.218,0,0,0,7.678,4.234" transform="translate(-650.711 -594.839)" fill="#007c7c"/>
        <path id="Path_69399" data-name="Path 69399" d="M604,784.481h0a6.49,6.49,0,0,1-3.155-8.591l12.482-26.965a6.471,6.471,0,0,1,11.745,5.437l-12.482,26.965A6.49,6.49,0,0,1,604,784.481" transform="translate(-467.476 -580.344)" fill="#007c7c"/>
        <path id="Path_69400" data-name="Path 69400" d="M671.706,1490.827a40.173,40.173,0,0,1,4.636-4.792l.532-15.246,9.1.106s.417,15.1.684,17.822-2.245,5.283-6.032,4.869a36.666,36.666,0,0,1-8.916-2.759" transform="translate(-523.126 -1145.454)" fill="#e6ae88"/>
        <path id="Path_69401" data-name="Path 69401" d="M647.324,1525.03c-2.986-.37-4.619,5.707-4.619,5.707s-3.34.8-4.365,1.726-1.953,7.263-1.953,7.263h23.334l0-12.6-5.626,3.091s-3.79-4.816-6.776-5.186" transform="translate(-495.62 -1187.684)" fill="#d9daef"/>
        <path id="Path_69402" data-name="Path 69402" d="M704.641,959.531c-.235-4.369-8.678-23.387-8.678-23.387H669.883s-8.443,19.018-8.678,23.387,1.407,7.71,3.283,8.738c1.654.906,35.215.906,36.869,0,1.876-1.028,3.518-4.369,3.284-8.738" transform="translate(-514.931 -729.071)" fill="#242c2e"/>
        <path id="Path_69403" data-name="Path 69403" d="M669.579,1136.642l-3.2-97.4c0-4.1,20.013-3.9,20.013.195l-2.806,97.208c0,4.1-14.009,4.1-14.009,0" transform="translate(-518.98 -807.044)" fill="#242c2e"/>
        <path id="Path_69404" data-name="Path 69404" d="M794.4,1491.5a40.217,40.217,0,0,0-4.644-4.792l-.533-16.161-9.111.106s-.418,16.018-.685,18.737,2.249,5.283,6.042,4.869a36.768,36.768,0,0,0,8.931-2.759" transform="translate(-607.007 -1145.267)" fill="#e6ae88"/>
        <path id="Path_69405" data-name="Path 69405" d="M789.3,1528.929c2.986-.37,4.618,5.707,4.618,5.707s3.34.8,4.365,1.726,1.953,6.4,1.953,6.4H776.9l.212-12.056,5.409,3.408s3.79-4.816,6.776-5.186" transform="translate(-605.054 -1190.721)" fill="#d9daef"/>
        <path id="Path_69406" data-name="Path 69406" d="M778.74,1140.541l3.2-97.4c0-4.1-20.013-3.9-20.013.195l2.806,97.208c0,2.842,14.009,3.428,14.009,0" transform="translate(-593.388 -810.08)" fill="#242c2e"/>
        <path id="Path_69407" data-name="Path 69407" d="M690.889,730.874l-12.957-1.39-13.8,3.4-6.141,47.889a4.448,4.448,0,0,0,4.109,5l33.335,2.272a4.448,4.448,0,0,0,4.738-4.107l3.485-46.816Z" transform="translate(-512.415 -568.124)" fill="#007c7c"/>
        <path id="Path_69408" data-name="Path 69408" d="M739.154,741.94c10.221,3.893,12.933-9.752,12.933-9.752l-2.686-1.314-12.957-1.39-3.248.8c-.612,4.762,1.267,9.871,5.958,11.658" transform="translate(-570.927 -568.123)" fill="#dfeae7"/>
        <path id="Path_69409" data-name="Path 69409" d="M712.638,820.373a373.818,373.818,0,0,1-40.4-3.988l-1.268,9.887c13.6,2.009,27.313,2.747,40.96,3.559Z" transform="translate(-522.556 -635.803)" fill="#dfeae7"/>
        <path id="Path_69410" data-name="Path 69410" d="M709.048,877.209c-13.81-.583-27.577-1.075-41.074-3.968l-.409,3.192a328.471,328.471,0,0,0,41.229,4.2Z" transform="translate(-519.9 -680.082)" fill="#dfeae7"/>
        <path id="Path_69411" data-name="Path 69411" d="M705.59,904.788c-13.888-.886-27.646-2.228-41.4-4.026l-.481,3.749c13.723,2.469,27.72,2.869,41.632,3.588Z" transform="translate(-516.9 -701.516)" fill="#dfeae7"/>
        <path id="Path_69412" data-name="Path 69412" d="M815.154,946.984l.385.314c1.424,1.16,3.715.726,5.091-.964l12.311-15.462c1.377-1.69,1.338-4.021-.085-5.181l-.385-.314c-1.424-1.16-3.715-.726-5.091.964L815.069,941.8c-1.377,1.69-1.338,4.021.085,5.181" transform="translate(-633.992 -720.18)" fill="#fabc96"/>
        <path id="Path_69413" data-name="Path 69413" d="M796.722,1004.227c-2.142,2.6,9.026,9.225,10.8,6.365.691-1.111.379-5.049-2.219-7.191a6.1,6.1,0,0,0-8.584.827" transform="translate(-620.277 -780.366)" fill="#fabc96"/>
        <path id="Path_69414" data-name="Path 69414" d="M830.107,916.878l13.112-16.81a5.513,5.513,0,1,0-8.867-6.525l-13.112,16.81c-1.895,2.575,6.972,9.1,8.867,6.525" transform="translate(-639.378 -693.995)" fill="#e59f3f"/>
        <path id="Path_69415" data-name="Path 69415" d="M638.79,937.349l-.45.267c-1.662.985-3.979.176-5.149-1.8l-10.4-18.016c-1.169-1.974-.765-4.395.9-5.38l.45-.266c1.663-.985,3.98-.176,5.149,1.8l10.4,18.016c1.169,1.974.765,4.395-.9,5.38" transform="translate(-484.511 -710.062)" fill="#fabc96"/>
        <path id="Path_69416" data-name="Path 69416" d="M678.134,1006.037c1.824,3.039-10.835,8.192-12.238,4.937-.545-1.264.394-5.315,3.433-7.138a6.418,6.418,0,0,1,8.805,2.2" transform="translate(-518.487 -781.077)" fill="#fabc96"/>
        <path id="Path_69417" data-name="Path 69417" d="M613.813,902.71l-11.022-19.544a5.8,5.8,0,1,1,10.248-5.407L624.062,897.3c1.57,2.976-8.678,8.383-10.248,5.406" transform="translate(-468.881 -680.999)" fill="#007c7c"/>
        <path id="Path_69418" data-name="Path 69418" d="M753.825,693c-4.658.07-7.093-3.485-6.676-7.368l1.332-12.414c.417-3.883,12.457-2.591,12.04,1.292l-1.332,12.414c-.417,3.883-2.822,6.037-5.364,6.076" transform="translate(-581.845 -522.475)" fill="#fabc96"/>
        <path id="Path_69419" data-name="Path 69419" d="M764.74,678.21c-.3,2.767-3.12,4.734-6.306,4.392s-5.528-2.862-5.231-5.63,3.12-4.734,6.306-4.392,5.528,2.863,5.231,5.63" transform="translate(-586.577 -523.777)" fill="#e08060"/>
        <path id="Path_69420" data-name="Path 69420" d="M717.556,629.377c-.214,1.994-1.257,3.518-3.251,3.3a3.632,3.632,0,0,1,.775-7.222c1.994.214,2.69,1.924,2.476,3.918" transform="translate(-553.776 -487.093)" fill="#fabc96"/>
        <path id="Path_69421" data-name="Path 69421" d="M822.879,640.407c-.214,1.994.482,3.7,2.476,3.918a3.631,3.631,0,1,0,.775-7.221c-1.994-.214-3.037,1.309-3.251,3.3" transform="translate(-640.831 -496.162)" fill="#fabc96"/>
        <path id="Path_69422" data-name="Path 69422" d="M740.688,573.012c-9.653-1.036-10.6-12.446-10.6-12.446l.056-14.97c.725-7.228,7.065-10.057,14.475-9.262h0c7.41.8,12.483,5.044,11.758,12.272l-2.7,14.491s-3.342,10.951-12.995,9.915" transform="translate(-568.598 -417.597)" fill="#fabc96"/>
        <path id="Path_69423" data-name="Path 69423" d="M813.22,637.734a2.786,2.786,0,0,0-2.314-.057,3.059,3.059,0,0,0-1.216,2.4c.094,2.134,3.061,2.193,4.281,1.227,1.521-1.2.814-3.032-.751-3.567" transform="translate(-630.587 -496.441)" fill="#f09771"/>
        <path id="Path_69424" data-name="Path 69424" d="M761.786,631.981a2.556,2.556,0,0,0-.936-.477c-1.289-.344-3.4-.293-3.876,1.1-.4,1.188.712,2.368,1.9,2.759a2.57,2.57,0,0,0,3.247-1.15,2.419,2.419,0,0,0-.338-2.237" transform="translate(-589.469 -491.679)" fill="#f09771"/>
        <path id="Path_69425" data-name="Path 69425" d="M776.1,623.1h0a.941.941,0,0,1-.833-1.033l.08-.746a.938.938,0,1,1,1.865.2l-.08.746a.941.941,0,0,1-1.033.833" transform="translate(-603.774 -483.235)" fill="#1c2336"/>
        <path id="Path_69426" data-name="Path 69426" d="M777.822,623.35a.167.167,0,1,1-.148-.184.167.167,0,0,1,.148.184" transform="translate(-605.511 -485.323)" fill="#e6e6e6"/>
        <path id="Path_69427" data-name="Path 69427" d="M812.83,627.043h0a.941.941,0,0,1-.833-1.032l.08-.746a.938.938,0,0,1,1.865.2l-.08.746a.941.941,0,0,1-1.033.832" transform="translate(-632.381 -486.305)" fill="#1c2336"/>
        <path id="Path_69428" data-name="Path 69428" d="M814.553,627.291a.167.167,0,1,1-.148-.184.166.166,0,0,1,.148.184" transform="translate(-634.117 -488.392)" fill="#e6e6e6"/>
        <path id="Path_69429" data-name="Path 69429" d="M772.08,611.17a.381.381,0,0,1-.273-.6,2.553,2.553,0,0,1,2.913-.922.381.381,0,1,1-.264.715,1.8,1.8,0,0,0-2.022.64.381.381,0,0,1-.355.163" transform="translate(-601.033 -474.686)" fill="#1c2336"/>
        <path id="Path_69430" data-name="Path 69430" d="M793.335,636.848a1.61,1.61,0,1,1-1.429-1.772,1.61,1.61,0,0,1,1.429,1.772" transform="translate(-615.351 -494.592)" fill="#e68d70"/>
        <path id="Path_69431" data-name="Path 69431" d="M793.008,633.436h0a1.107,1.107,0,0,1-.98-1.215l.3-2.772a1.1,1.1,0,0,1,2.195.235l-.3,2.772a1.107,1.107,0,0,1-1.215.98" transform="translate(-616.829 -489.448)" fill="#e0714c"/>
        <path id="Path_69432" data-name="Path 69432" d="M788.507,655.3a4.081,4.081,0,0,1-3.131-2.063.359.359,0,1,1,.631-.342,3.384,3.384,0,0,0,3.547,1.646.359.359,0,0,1,.146.7,3.846,3.846,0,0,1-1.194.056" transform="translate(-611.619 -508.329)" fill="#be3939"/>
        <path id="Path_69433" data-name="Path 69433" d="M814.1,615.108a.381.381,0,0,0,.393-.524,2.554,2.554,0,0,0-2.651-1.519.381.381,0,0,0,.107.755,1.8,1.8,0,0,1,1.84,1.054.381.381,0,0,0,.312.234" transform="translate(-632.01 -477.439)" fill="#1c2336"/>
        <path id="Path_69434" data-name="Path 69434" d="M758.6,632.243s-7.247.822-10.79.891c0,0,.109,6.627-.459,7.866s4.686,6.586,9.539,7.107Z" transform="translate(-582.009 -492.393)" fill="#6bc2d1"/>
        <path id="Path_69435" data-name="Path 69435" d="M791.935,632.243a31.523,31.523,0,0,0,6.964,2.8s-1.707,5.735-1.414,7.067-3.2,5.612-7.374,5.99Z" transform="translate(-615.34 -492.393)" fill="#8fd1dc"/>
        <path id="Path_69436" data-name="Path 69436" d="M825.708,636.594l3.1-2.84.146-1.084-3.575,2.908Z" transform="translate(-642.81 -492.725)" fill="#8fd1dc"/>
        <path id="Path_69437" data-name="Path 69437" d="M824.186,669.38l-.551,1.136-1.576,1.478-.039-.891Z" transform="translate(-640.192 -521.315)" fill="#8fd1dc"/>
        <path id="Path_69438" data-name="Path 69438" d="M737.063,623.306l-3.788-4.286.194-1.3,4.127,4.665Z" transform="translate(-571.076 -481.08)" fill="#6bc2d1"/>
        <path id="Path_69439" data-name="Path 69439" d="M732.094,657.4l.291,1.14,3.2,2.776.2-.964Z" transform="translate(-570.156 -511.985)" fill="#6bc2d1"/>
        <path id="Path_69440" data-name="Path 69440" d="M750.956,533.037c.193-4.62-1.076-10.322-8.276-11.094a17.319,17.319,0,0,0-13.3,3.778,8.079,8.079,0,0,0-7.221,10.8h0a8.077,8.077,0,0,0,14.278,1.81,16.36,16.36,0,0,1,9.548,2.339,5.1,5.1,0,0,0,4.969-7.633" transform="translate(-562.051 -406.395)" fill="#42210b"/>
        <path id="Path_69441" data-name="Path 69441" d="M726.142,588.465h0a1.925,1.925,0,0,1-1.92-1.92v-6.938a1.92,1.92,0,1,1,3.84,0v6.938a1.926,1.926,0,0,1-1.92,1.92" transform="translate(-564.026 -449.904)" fill="#42210b"/>
        <path id="Path_69442" data-name="Path 69442" d="M838.33,598.414h0a1.218,1.218,0,0,1-1.078-1.337L837.8,592a1.214,1.214,0,0,1,2.415.259l-.545,5.077a1.218,1.218,0,0,1-1.337,1.078" transform="translate(-652.049 -460.206)" fill="#42210b"/>
      </g>
    </g>
  </g>
</svg>
